M48
; DRILL file {KiCad 8.0.7-1.fc40} date 2025-01-15T23:39:23+0300
; FORMAT={-:-/ absolute / inch / decimal}
; #@! TF.CreationDate,2025-01-15T23:39:23+03:00
; #@! TF.GenerationSoftware,Kicad,Pcbnew,8.0.7-1.fc40
; #@! TF.FileFunction,Plated,1,2,PTH
FMAT,2
INCH
; #@! TA.AperFunction,Plated,PTH,ViaDrill
T1C0.0118
; #@! TA.AperFunction,Plated,PTH,ComponentDrill
T2C0.0197
; #@! TA.AperFunction,Plated,PTH,ComponentDrill
T3C0.0394
%
G90
G05
T1
X5.3248Y-4.5965
X5.3839Y-4.7431
X5.4262Y-4.7431
X5.4429Y-3.6122
X5.4724Y-3.7992
X5.4724Y-4.6654
X5.4724Y-4.7431
X5.4921Y-3.6319
X5.5118Y-4.6654
X5.5512Y-4.5531
X5.5512Y-4.6654
X5.5807Y-4.7431
X5.5906Y-3.8976
X5.5906Y-4.8622
X5.6046Y-3.677
X5.6102Y-4.4488
X5.6358Y-4.2126
X5.6358Y-4.3701
X5.6398Y-3.8996
X5.6693Y-3.563
X5.7087Y-4.2126
X5.7087Y-4.3701
X5.7283Y-3.8976
X5.7677Y-3.8976
X5.7972Y-3.75
X5.8071Y-3.7008
X5.8465Y-3.7008
X5.8465Y-4.4488
X5.8957Y-3.7795
X5.9449Y-3.622
X5.9449Y-3.6516
X5.9449Y-4.2126
X5.9449Y-4.3701
X6.0138Y-4.8228
X6.0827Y-4.4488
X6.1811Y-3.7106
X6.1811Y-3.7894
X6.1811Y-4.2126
X6.1811Y-4.3701
X6.25Y-4.7736
X6.3189Y-4.4094
X6.3386Y-3.563
X6.3742Y-3.75
X6.4744Y-4.1472
T2
X6.498Y-3.6516
X6.5728Y-3.6516
T3
X6.2961Y-4.7047
X6.2961Y-4.6047
X6.3961Y-4.6047
X6.3961Y-4.7047
X6.4961Y-4.6047
X6.4961Y-4.7047
M30
