%TF.GenerationSoftware,KiCad,Pcbnew,8.0.7-1.fc40*%
%TF.CreationDate,2025-01-15T23:39:27+03:00*%
%TF.ProjectId,qneo,716e656f-2e6b-4696-9361-645f70636258,rev?*%
%TF.SameCoordinates,Original*%
%TF.FileFunction,Legend,Bot*%
%TF.FilePolarity,Positive*%
%FSLAX46Y46*%
G04 Gerber Fmt 4.6, Leading zero omitted, Abs format (unit mm)*
G04 Created by KiCad (PCBNEW 8.0.7-1.fc40) date 2025-01-15 23:39:27*
%MOMM*%
%LPD*%
G01*
G04 APERTURE LIST*
%ADD10C,0.080000*%
%ADD11C,0.200000*%
%ADD12C,0.400000*%
%ADD13C,0.100000*%
%ADD14C,0.150000*%
%ADD15C,0.120000*%
G04 APERTURE END LIST*
D10*
X156506892Y-122147935D02*
X156506892Y-121347935D01*
X156164035Y-122147935D02*
X156164035Y-121728887D01*
X156164035Y-121728887D02*
X156202130Y-121652697D01*
X156202130Y-121652697D02*
X156278321Y-121614601D01*
X156278321Y-121614601D02*
X156392607Y-121614601D01*
X156392607Y-121614601D02*
X156468797Y-121652697D01*
X156468797Y-121652697D02*
X156506892Y-121690792D01*
X155897368Y-121614601D02*
X155592606Y-121614601D01*
X155783082Y-121347935D02*
X155783082Y-122033649D01*
X155783082Y-122033649D02*
X155744987Y-122109840D01*
X155744987Y-122109840D02*
X155668797Y-122147935D01*
X155668797Y-122147935D02*
X155592606Y-122147935D01*
X155440225Y-121614601D02*
X155135463Y-121614601D01*
X155325939Y-121347935D02*
X155325939Y-122033649D01*
X155325939Y-122033649D02*
X155287844Y-122109840D01*
X155287844Y-122109840D02*
X155211654Y-122147935D01*
X155211654Y-122147935D02*
X155135463Y-122147935D01*
X154868796Y-121614601D02*
X154868796Y-122414601D01*
X154868796Y-121652697D02*
X154792606Y-121614601D01*
X154792606Y-121614601D02*
X154640225Y-121614601D01*
X154640225Y-121614601D02*
X154564034Y-121652697D01*
X154564034Y-121652697D02*
X154525939Y-121690792D01*
X154525939Y-121690792D02*
X154487844Y-121766982D01*
X154487844Y-121766982D02*
X154487844Y-121995554D01*
X154487844Y-121995554D02*
X154525939Y-122071744D01*
X154525939Y-122071744D02*
X154564034Y-122109840D01*
X154564034Y-122109840D02*
X154640225Y-122147935D01*
X154640225Y-122147935D02*
X154792606Y-122147935D01*
X154792606Y-122147935D02*
X154868796Y-122109840D01*
X154183082Y-122109840D02*
X154106891Y-122147935D01*
X154106891Y-122147935D02*
X153954510Y-122147935D01*
X153954510Y-122147935D02*
X153878320Y-122109840D01*
X153878320Y-122109840D02*
X153840224Y-122033649D01*
X153840224Y-122033649D02*
X153840224Y-121995554D01*
X153840224Y-121995554D02*
X153878320Y-121919363D01*
X153878320Y-121919363D02*
X153954510Y-121881268D01*
X153954510Y-121881268D02*
X154068796Y-121881268D01*
X154068796Y-121881268D02*
X154144986Y-121843173D01*
X154144986Y-121843173D02*
X154183082Y-121766982D01*
X154183082Y-121766982D02*
X154183082Y-121728887D01*
X154183082Y-121728887D02*
X154144986Y-121652697D01*
X154144986Y-121652697D02*
X154068796Y-121614601D01*
X154068796Y-121614601D02*
X153954510Y-121614601D01*
X153954510Y-121614601D02*
X153878320Y-121652697D01*
X153497367Y-122071744D02*
X153459272Y-122109840D01*
X153459272Y-122109840D02*
X153497367Y-122147935D01*
X153497367Y-122147935D02*
X153535463Y-122109840D01*
X153535463Y-122109840D02*
X153497367Y-122071744D01*
X153497367Y-122071744D02*
X153497367Y-122147935D01*
X153497367Y-121652697D02*
X153459272Y-121690792D01*
X153459272Y-121690792D02*
X153497367Y-121728887D01*
X153497367Y-121728887D02*
X153535463Y-121690792D01*
X153535463Y-121690792D02*
X153497367Y-121652697D01*
X153497367Y-121652697D02*
X153497367Y-121728887D01*
X152544987Y-121309840D02*
X153230701Y-122338411D01*
X151706892Y-121309840D02*
X152392606Y-122338411D01*
X151097368Y-121614601D02*
X151097368Y-122414601D01*
X151097368Y-122109840D02*
X151173559Y-122147935D01*
X151173559Y-122147935D02*
X151325940Y-122147935D01*
X151325940Y-122147935D02*
X151402130Y-122109840D01*
X151402130Y-122109840D02*
X151440225Y-122071744D01*
X151440225Y-122071744D02*
X151478321Y-121995554D01*
X151478321Y-121995554D02*
X151478321Y-121766982D01*
X151478321Y-121766982D02*
X151440225Y-121690792D01*
X151440225Y-121690792D02*
X151402130Y-121652697D01*
X151402130Y-121652697D02*
X151325940Y-121614601D01*
X151325940Y-121614601D02*
X151173559Y-121614601D01*
X151173559Y-121614601D02*
X151097368Y-121652697D01*
X150411653Y-122109840D02*
X150487844Y-122147935D01*
X150487844Y-122147935D02*
X150640225Y-122147935D01*
X150640225Y-122147935D02*
X150716415Y-122109840D01*
X150716415Y-122109840D02*
X150754511Y-122033649D01*
X150754511Y-122033649D02*
X150754511Y-121728887D01*
X150754511Y-121728887D02*
X150716415Y-121652697D01*
X150716415Y-121652697D02*
X150640225Y-121614601D01*
X150640225Y-121614601D02*
X150487844Y-121614601D01*
X150487844Y-121614601D02*
X150411653Y-121652697D01*
X150411653Y-121652697D02*
X150373558Y-121728887D01*
X150373558Y-121728887D02*
X150373558Y-121805078D01*
X150373558Y-121805078D02*
X150754511Y-121881268D01*
X150106892Y-121614601D02*
X149954511Y-122147935D01*
X149954511Y-122147935D02*
X149802130Y-121766982D01*
X149802130Y-121766982D02*
X149649749Y-122147935D01*
X149649749Y-122147935D02*
X149497368Y-121614601D01*
X148887844Y-122109840D02*
X148964035Y-122147935D01*
X148964035Y-122147935D02*
X149116416Y-122147935D01*
X149116416Y-122147935D02*
X149192606Y-122109840D01*
X149192606Y-122109840D02*
X149230702Y-122033649D01*
X149230702Y-122033649D02*
X149230702Y-121728887D01*
X149230702Y-121728887D02*
X149192606Y-121652697D01*
X149192606Y-121652697D02*
X149116416Y-121614601D01*
X149116416Y-121614601D02*
X148964035Y-121614601D01*
X148964035Y-121614601D02*
X148887844Y-121652697D01*
X148887844Y-121652697D02*
X148849749Y-121728887D01*
X148849749Y-121728887D02*
X148849749Y-121805078D01*
X148849749Y-121805078D02*
X149230702Y-121881268D01*
X148506892Y-122147935D02*
X148506892Y-121614601D01*
X148506892Y-121766982D02*
X148468797Y-121690792D01*
X148468797Y-121690792D02*
X148430702Y-121652697D01*
X148430702Y-121652697D02*
X148354511Y-121614601D01*
X148354511Y-121614601D02*
X148278321Y-121614601D01*
X148011654Y-122071744D02*
X147973559Y-122109840D01*
X147973559Y-122109840D02*
X148011654Y-122147935D01*
X148011654Y-122147935D02*
X148049750Y-122109840D01*
X148049750Y-122109840D02*
X148011654Y-122071744D01*
X148011654Y-122071744D02*
X148011654Y-122147935D01*
X147287845Y-122147935D02*
X147287845Y-121347935D01*
X147287845Y-122109840D02*
X147364036Y-122147935D01*
X147364036Y-122147935D02*
X147516417Y-122147935D01*
X147516417Y-122147935D02*
X147592607Y-122109840D01*
X147592607Y-122109840D02*
X147630702Y-122071744D01*
X147630702Y-122071744D02*
X147668798Y-121995554D01*
X147668798Y-121995554D02*
X147668798Y-121766982D01*
X147668798Y-121766982D02*
X147630702Y-121690792D01*
X147630702Y-121690792D02*
X147592607Y-121652697D01*
X147592607Y-121652697D02*
X147516417Y-121614601D01*
X147516417Y-121614601D02*
X147364036Y-121614601D01*
X147364036Y-121614601D02*
X147287845Y-121652697D01*
X146602130Y-122109840D02*
X146678321Y-122147935D01*
X146678321Y-122147935D02*
X146830702Y-122147935D01*
X146830702Y-122147935D02*
X146906892Y-122109840D01*
X146906892Y-122109840D02*
X146944988Y-122033649D01*
X146944988Y-122033649D02*
X146944988Y-121728887D01*
X146944988Y-121728887D02*
X146906892Y-121652697D01*
X146906892Y-121652697D02*
X146830702Y-121614601D01*
X146830702Y-121614601D02*
X146678321Y-121614601D01*
X146678321Y-121614601D02*
X146602130Y-121652697D01*
X146602130Y-121652697D02*
X146564035Y-121728887D01*
X146564035Y-121728887D02*
X146564035Y-121805078D01*
X146564035Y-121805078D02*
X146944988Y-121881268D01*
X146297369Y-121614601D02*
X146106893Y-122147935D01*
X146106893Y-122147935D02*
X145916416Y-121614601D01*
D11*
X156237469Y-119007275D02*
X156332707Y-118959656D01*
X156332707Y-118959656D02*
X156380326Y-118864417D01*
X156380326Y-118864417D02*
X156380326Y-118007275D01*
X155713659Y-119007275D02*
X155808897Y-118959656D01*
X155808897Y-118959656D02*
X155856516Y-118912036D01*
X155856516Y-118912036D02*
X155904135Y-118816798D01*
X155904135Y-118816798D02*
X155904135Y-118531084D01*
X155904135Y-118531084D02*
X155856516Y-118435846D01*
X155856516Y-118435846D02*
X155808897Y-118388227D01*
X155808897Y-118388227D02*
X155713659Y-118340608D01*
X155713659Y-118340608D02*
X155570802Y-118340608D01*
X155570802Y-118340608D02*
X155475564Y-118388227D01*
X155475564Y-118388227D02*
X155427945Y-118435846D01*
X155427945Y-118435846D02*
X155380326Y-118531084D01*
X155380326Y-118531084D02*
X155380326Y-118816798D01*
X155380326Y-118816798D02*
X155427945Y-118912036D01*
X155427945Y-118912036D02*
X155475564Y-118959656D01*
X155475564Y-118959656D02*
X155570802Y-119007275D01*
X155570802Y-119007275D02*
X155713659Y-119007275D01*
X155046992Y-118340608D02*
X154856516Y-119007275D01*
X154856516Y-119007275D02*
X154666040Y-118531084D01*
X154666040Y-118531084D02*
X154475564Y-119007275D01*
X154475564Y-119007275D02*
X154285088Y-118340608D01*
X153142230Y-118340608D02*
X153142230Y-119340608D01*
X153142230Y-118388227D02*
X153046992Y-118340608D01*
X153046992Y-118340608D02*
X152856516Y-118340608D01*
X152856516Y-118340608D02*
X152761278Y-118388227D01*
X152761278Y-118388227D02*
X152713659Y-118435846D01*
X152713659Y-118435846D02*
X152666040Y-118531084D01*
X152666040Y-118531084D02*
X152666040Y-118816798D01*
X152666040Y-118816798D02*
X152713659Y-118912036D01*
X152713659Y-118912036D02*
X152761278Y-118959656D01*
X152761278Y-118959656D02*
X152856516Y-119007275D01*
X152856516Y-119007275D02*
X153046992Y-119007275D01*
X153046992Y-119007275D02*
X153142230Y-118959656D01*
X152094611Y-119007275D02*
X152189849Y-118959656D01*
X152189849Y-118959656D02*
X152237468Y-118912036D01*
X152237468Y-118912036D02*
X152285087Y-118816798D01*
X152285087Y-118816798D02*
X152285087Y-118531084D01*
X152285087Y-118531084D02*
X152237468Y-118435846D01*
X152237468Y-118435846D02*
X152189849Y-118388227D01*
X152189849Y-118388227D02*
X152094611Y-118340608D01*
X152094611Y-118340608D02*
X151951754Y-118340608D01*
X151951754Y-118340608D02*
X151856516Y-118388227D01*
X151856516Y-118388227D02*
X151808897Y-118435846D01*
X151808897Y-118435846D02*
X151761278Y-118531084D01*
X151761278Y-118531084D02*
X151761278Y-118816798D01*
X151761278Y-118816798D02*
X151808897Y-118912036D01*
X151808897Y-118912036D02*
X151856516Y-118959656D01*
X151856516Y-118959656D02*
X151951754Y-119007275D01*
X151951754Y-119007275D02*
X152094611Y-119007275D01*
X151427944Y-118340608D02*
X151237468Y-119007275D01*
X151237468Y-119007275D02*
X151046992Y-118531084D01*
X151046992Y-118531084D02*
X150856516Y-119007275D01*
X150856516Y-119007275D02*
X150666040Y-118340608D01*
X149904135Y-118959656D02*
X149999373Y-119007275D01*
X149999373Y-119007275D02*
X150189849Y-119007275D01*
X150189849Y-119007275D02*
X150285087Y-118959656D01*
X150285087Y-118959656D02*
X150332706Y-118864417D01*
X150332706Y-118864417D02*
X150332706Y-118483465D01*
X150332706Y-118483465D02*
X150285087Y-118388227D01*
X150285087Y-118388227D02*
X150189849Y-118340608D01*
X150189849Y-118340608D02*
X149999373Y-118340608D01*
X149999373Y-118340608D02*
X149904135Y-118388227D01*
X149904135Y-118388227D02*
X149856516Y-118483465D01*
X149856516Y-118483465D02*
X149856516Y-118578703D01*
X149856516Y-118578703D02*
X150332706Y-118673941D01*
X149427944Y-119007275D02*
X149427944Y-118340608D01*
X149427944Y-118531084D02*
X149380325Y-118435846D01*
X149380325Y-118435846D02*
X149332706Y-118388227D01*
X149332706Y-118388227D02*
X149237468Y-118340608D01*
X149237468Y-118340608D02*
X149142230Y-118340608D01*
X148046991Y-119007275D02*
X148046991Y-118007275D01*
X148046991Y-118388227D02*
X147951753Y-118340608D01*
X147951753Y-118340608D02*
X147761277Y-118340608D01*
X147761277Y-118340608D02*
X147666039Y-118388227D01*
X147666039Y-118388227D02*
X147618420Y-118435846D01*
X147618420Y-118435846D02*
X147570801Y-118531084D01*
X147570801Y-118531084D02*
X147570801Y-118816798D01*
X147570801Y-118816798D02*
X147618420Y-118912036D01*
X147618420Y-118912036D02*
X147666039Y-118959656D01*
X147666039Y-118959656D02*
X147761277Y-119007275D01*
X147761277Y-119007275D02*
X147951753Y-119007275D01*
X147951753Y-119007275D02*
X148046991Y-118959656D01*
X147142229Y-119007275D02*
X147142229Y-118340608D01*
X147142229Y-118007275D02*
X147189848Y-118054894D01*
X147189848Y-118054894D02*
X147142229Y-118102513D01*
X147142229Y-118102513D02*
X147094610Y-118054894D01*
X147094610Y-118054894D02*
X147142229Y-118007275D01*
X147142229Y-118007275D02*
X147142229Y-118102513D01*
X146666039Y-118340608D02*
X146666039Y-119007275D01*
X146666039Y-118435846D02*
X146618420Y-118388227D01*
X146618420Y-118388227D02*
X146523182Y-118340608D01*
X146523182Y-118340608D02*
X146380325Y-118340608D01*
X146380325Y-118340608D02*
X146285087Y-118388227D01*
X146285087Y-118388227D02*
X146237468Y-118483465D01*
X146237468Y-118483465D02*
X146237468Y-119007275D01*
X145332706Y-119007275D02*
X145332706Y-118483465D01*
X145332706Y-118483465D02*
X145380325Y-118388227D01*
X145380325Y-118388227D02*
X145475563Y-118340608D01*
X145475563Y-118340608D02*
X145666039Y-118340608D01*
X145666039Y-118340608D02*
X145761277Y-118388227D01*
X145332706Y-118959656D02*
X145427944Y-119007275D01*
X145427944Y-119007275D02*
X145666039Y-119007275D01*
X145666039Y-119007275D02*
X145761277Y-118959656D01*
X145761277Y-118959656D02*
X145808896Y-118864417D01*
X145808896Y-118864417D02*
X145808896Y-118769179D01*
X145808896Y-118769179D02*
X145761277Y-118673941D01*
X145761277Y-118673941D02*
X145666039Y-118626322D01*
X145666039Y-118626322D02*
X145427944Y-118626322D01*
X145427944Y-118626322D02*
X145332706Y-118578703D01*
X144856515Y-119007275D02*
X144856515Y-118340608D01*
X144856515Y-118531084D02*
X144808896Y-118435846D01*
X144808896Y-118435846D02*
X144761277Y-118388227D01*
X144761277Y-118388227D02*
X144666039Y-118340608D01*
X144666039Y-118340608D02*
X144570801Y-118340608D01*
X144332705Y-118340608D02*
X144094610Y-119007275D01*
X143856515Y-118340608D02*
X144094610Y-119007275D01*
X144094610Y-119007275D02*
X144189848Y-119245370D01*
X144189848Y-119245370D02*
X144237467Y-119292989D01*
X144237467Y-119292989D02*
X144332705Y-119340608D01*
X156475564Y-119950552D02*
X156285088Y-120617219D01*
X156285088Y-120617219D02*
X156094612Y-120141028D01*
X156094612Y-120141028D02*
X155904136Y-120617219D01*
X155904136Y-120617219D02*
X155713660Y-119950552D01*
X155332707Y-120617219D02*
X155332707Y-119950552D01*
X155332707Y-120141028D02*
X155285088Y-120045790D01*
X155285088Y-120045790D02*
X155237469Y-119998171D01*
X155237469Y-119998171D02*
X155142231Y-119950552D01*
X155142231Y-119950552D02*
X155046993Y-119950552D01*
X154713659Y-120617219D02*
X154713659Y-119950552D01*
X154713659Y-119617219D02*
X154761278Y-119664838D01*
X154761278Y-119664838D02*
X154713659Y-119712457D01*
X154713659Y-119712457D02*
X154666040Y-119664838D01*
X154666040Y-119664838D02*
X154713659Y-119617219D01*
X154713659Y-119617219D02*
X154713659Y-119712457D01*
X154285088Y-120569600D02*
X154189850Y-120617219D01*
X154189850Y-120617219D02*
X153999374Y-120617219D01*
X153999374Y-120617219D02*
X153904136Y-120569600D01*
X153904136Y-120569600D02*
X153856517Y-120474361D01*
X153856517Y-120474361D02*
X153856517Y-120426742D01*
X153856517Y-120426742D02*
X153904136Y-120331504D01*
X153904136Y-120331504D02*
X153999374Y-120283885D01*
X153999374Y-120283885D02*
X154142231Y-120283885D01*
X154142231Y-120283885D02*
X154237469Y-120236266D01*
X154237469Y-120236266D02*
X154285088Y-120141028D01*
X154285088Y-120141028D02*
X154285088Y-120093409D01*
X154285088Y-120093409D02*
X154237469Y-119998171D01*
X154237469Y-119998171D02*
X154142231Y-119950552D01*
X154142231Y-119950552D02*
X153999374Y-119950552D01*
X153999374Y-119950552D02*
X153904136Y-119998171D01*
X153570802Y-119950552D02*
X153189850Y-119950552D01*
X153427945Y-119617219D02*
X153427945Y-120474361D01*
X153427945Y-120474361D02*
X153380326Y-120569600D01*
X153380326Y-120569600D02*
X153285088Y-120617219D01*
X153285088Y-120617219D02*
X153189850Y-120617219D01*
X152951754Y-119950552D02*
X152761278Y-120617219D01*
X152761278Y-120617219D02*
X152570802Y-120141028D01*
X152570802Y-120141028D02*
X152380326Y-120617219D01*
X152380326Y-120617219D02*
X152189850Y-119950552D01*
X151380326Y-120617219D02*
X151380326Y-120093409D01*
X151380326Y-120093409D02*
X151427945Y-119998171D01*
X151427945Y-119998171D02*
X151523183Y-119950552D01*
X151523183Y-119950552D02*
X151713659Y-119950552D01*
X151713659Y-119950552D02*
X151808897Y-119998171D01*
X151380326Y-120569600D02*
X151475564Y-120617219D01*
X151475564Y-120617219D02*
X151713659Y-120617219D01*
X151713659Y-120617219D02*
X151808897Y-120569600D01*
X151808897Y-120569600D02*
X151856516Y-120474361D01*
X151856516Y-120474361D02*
X151856516Y-120379123D01*
X151856516Y-120379123D02*
X151808897Y-120283885D01*
X151808897Y-120283885D02*
X151713659Y-120236266D01*
X151713659Y-120236266D02*
X151475564Y-120236266D01*
X151475564Y-120236266D02*
X151380326Y-120188647D01*
X151046992Y-119950552D02*
X150666040Y-119950552D01*
X150904135Y-119617219D02*
X150904135Y-120474361D01*
X150904135Y-120474361D02*
X150856516Y-120569600D01*
X150856516Y-120569600D02*
X150761278Y-120617219D01*
X150761278Y-120617219D02*
X150666040Y-120617219D01*
X149904135Y-120569600D02*
X149999373Y-120617219D01*
X149999373Y-120617219D02*
X150189849Y-120617219D01*
X150189849Y-120617219D02*
X150285087Y-120569600D01*
X150285087Y-120569600D02*
X150332706Y-120521980D01*
X150332706Y-120521980D02*
X150380325Y-120426742D01*
X150380325Y-120426742D02*
X150380325Y-120141028D01*
X150380325Y-120141028D02*
X150332706Y-120045790D01*
X150332706Y-120045790D02*
X150285087Y-119998171D01*
X150285087Y-119998171D02*
X150189849Y-119950552D01*
X150189849Y-119950552D02*
X149999373Y-119950552D01*
X149999373Y-119950552D02*
X149904135Y-119998171D01*
X149475563Y-120617219D02*
X149475563Y-119617219D01*
X149046992Y-120617219D02*
X149046992Y-120093409D01*
X149046992Y-120093409D02*
X149094611Y-119998171D01*
X149094611Y-119998171D02*
X149189849Y-119950552D01*
X149189849Y-119950552D02*
X149332706Y-119950552D01*
X149332706Y-119950552D02*
X149427944Y-119998171D01*
X149427944Y-119998171D02*
X149475563Y-120045790D01*
D12*
G36*
X155935091Y-115386197D02*
G01*
X156025366Y-115424286D01*
X156067096Y-115455882D01*
X156129086Y-115533860D01*
X156167417Y-115627305D01*
X156181402Y-115691332D01*
X156243440Y-116088960D01*
X156249554Y-116192549D01*
X156224910Y-116289094D01*
X156203872Y-116322456D01*
X156120586Y-116384371D01*
X156016855Y-116404687D01*
X155999685Y-116405010D01*
X155895575Y-116391143D01*
X155806299Y-116349544D01*
X155770097Y-116320990D01*
X155706613Y-116242163D01*
X155668476Y-116150653D01*
X155655303Y-116088960D01*
X155590823Y-115691332D01*
X155584824Y-115589025D01*
X155610817Y-115492587D01*
X155632833Y-115458813D01*
X155711272Y-115398506D01*
X155811984Y-115375532D01*
X155837020Y-115374794D01*
X155935091Y-115386197D01*
G37*
G36*
X147535026Y-115388660D02*
G01*
X147623577Y-115430260D01*
X147659281Y-115458813D01*
X147722300Y-115537721D01*
X147761295Y-115629449D01*
X147775540Y-115691332D01*
X147840020Y-116088960D01*
X147844211Y-116190969D01*
X147818018Y-116287233D01*
X147796545Y-116320990D01*
X147719051Y-116381297D01*
X147618445Y-116404272D01*
X147593335Y-116405010D01*
X147495424Y-116393401D01*
X147404858Y-116354623D01*
X147362770Y-116322456D01*
X147299918Y-116244094D01*
X147262079Y-116151724D01*
X147248953Y-116088960D01*
X147187404Y-115691332D01*
X147179710Y-115587445D01*
X147204073Y-115490727D01*
X147225505Y-115457348D01*
X147303293Y-115398093D01*
X147405528Y-115375519D01*
X147431158Y-115374794D01*
X147535026Y-115388660D01*
G37*
G36*
X149134984Y-114878970D02*
G01*
X149229311Y-114915172D01*
X149291311Y-114959092D01*
X149357990Y-115034930D01*
X149402686Y-115126154D01*
X149420272Y-115195519D01*
X149560467Y-116080167D01*
X149564657Y-116181948D01*
X149532908Y-116281070D01*
X149507222Y-116317083D01*
X149424569Y-116379193D01*
X149323038Y-116405723D01*
X149277634Y-116407941D01*
X149179355Y-116397205D01*
X149085440Y-116361003D01*
X149024110Y-116317083D01*
X148958324Y-116241176D01*
X148914109Y-116149746D01*
X148896615Y-116080167D01*
X148825240Y-115629783D01*
X148977704Y-115629783D01*
X148999582Y-115725543D01*
X149028506Y-115764117D01*
X149116731Y-115810451D01*
X149159909Y-115814431D01*
X149256398Y-115790650D01*
X149290334Y-115764117D01*
X149335319Y-115674378D01*
X149339183Y-115629783D01*
X149316094Y-115533084D01*
X149290334Y-115499357D01*
X149203010Y-115454373D01*
X149159909Y-115450509D01*
X149062958Y-115473598D01*
X149028506Y-115499357D01*
X148981722Y-115586485D01*
X148977704Y-115629783D01*
X148825240Y-115629783D01*
X148756420Y-115195519D01*
X148751886Y-115094036D01*
X148782367Y-114995088D01*
X148807222Y-114959092D01*
X148888192Y-114896982D01*
X148990504Y-114870452D01*
X149036810Y-114868234D01*
X149134984Y-114878970D01*
G37*
G36*
X152574538Y-115388922D02*
G01*
X152666339Y-115426323D01*
X152708757Y-115457348D01*
X152771696Y-115534376D01*
X152810474Y-115627376D01*
X152824528Y-115691332D01*
X152886566Y-116088960D01*
X152892542Y-116192412D01*
X152867391Y-116288449D01*
X152846022Y-116321479D01*
X152766703Y-116379682D01*
X152669656Y-116401301D01*
X152634508Y-116402568D01*
X152533025Y-116391164D01*
X152440449Y-116353075D01*
X152398080Y-116321479D01*
X152335228Y-116243750D01*
X152297390Y-116151678D01*
X152284263Y-116088960D01*
X152222714Y-115691332D01*
X152215020Y-115586071D01*
X152239384Y-115489834D01*
X152260816Y-115457348D01*
X152340429Y-115400196D01*
X152438945Y-115378969D01*
X152474773Y-115377725D01*
X152574538Y-115388922D01*
G37*
G36*
X156807337Y-117386339D02*
G01*
X146623506Y-117386339D01*
X146623506Y-115534774D01*
X146845728Y-115534774D01*
X146849011Y-115587445D01*
X146852537Y-115644014D01*
X146857187Y-115677166D01*
X146924110Y-116102637D01*
X146944452Y-116199731D01*
X146977386Y-116298821D01*
X147021197Y-116388657D01*
X147036461Y-116413803D01*
X147098795Y-116497042D01*
X147170942Y-116566082D01*
X147245045Y-116616524D01*
X147334492Y-116657129D01*
X147431559Y-116680878D01*
X147526413Y-116687843D01*
X147625803Y-116679458D01*
X147726921Y-116646436D01*
X147805642Y-116588363D01*
X147811688Y-116581842D01*
X147865406Y-116490915D01*
X147883510Y-116388134D01*
X147881845Y-116365931D01*
X147887404Y-116365931D01*
X147934787Y-116660000D01*
X148257187Y-116660000D01*
X148005165Y-115074346D01*
X148437790Y-115074346D01*
X148439268Y-115094036D01*
X148445166Y-115172629D01*
X148448674Y-115195519D01*
X148588869Y-116080167D01*
X148610327Y-116179103D01*
X148647765Y-116280692D01*
X148699514Y-116373505D01*
X148717829Y-116399637D01*
X148786065Y-116479416D01*
X148864986Y-116547175D01*
X148954592Y-116602912D01*
X148973796Y-116612616D01*
X149074842Y-116652287D01*
X149172554Y-116675428D01*
X149276680Y-116686668D01*
X149325017Y-116687843D01*
X149430139Y-116681893D01*
X149535068Y-116661323D01*
X149627499Y-116626060D01*
X149652791Y-116612616D01*
X149734241Y-116553289D01*
X149802820Y-116471979D01*
X149840369Y-116399637D01*
X149868784Y-116299957D01*
X149877485Y-116200123D01*
X149869872Y-116091511D01*
X149868213Y-116080167D01*
X149782164Y-115537189D01*
X150205581Y-115537189D01*
X150216503Y-115643461D01*
X150376238Y-116660000D01*
X150704012Y-116660000D01*
X150547208Y-115677166D01*
X150542583Y-115577263D01*
X150571191Y-115478467D01*
X150589218Y-115451974D01*
X150671161Y-115391891D01*
X150771513Y-115372176D01*
X150788032Y-115371863D01*
X150891900Y-115385729D01*
X150980451Y-115427329D01*
X151016154Y-115455882D01*
X151079174Y-115535274D01*
X151118169Y-115628307D01*
X151132414Y-115691332D01*
X151286287Y-116660000D01*
X151614061Y-116660000D01*
X151441564Y-115570054D01*
X151883005Y-115570054D01*
X151884028Y-115586071D01*
X151889286Y-115668389D01*
X151892498Y-115691332D01*
X151956489Y-116088960D01*
X151978068Y-116187543D01*
X152015277Y-116288561D01*
X152066415Y-116380610D01*
X152084473Y-116406475D01*
X152151554Y-116485196D01*
X152228843Y-116551609D01*
X152316341Y-116605715D01*
X152335066Y-116615059D01*
X152433793Y-116653441D01*
X152530153Y-116675831D01*
X152633622Y-116686706D01*
X152681891Y-116687843D01*
X152785600Y-116682086D01*
X152888869Y-116662184D01*
X152987919Y-116623873D01*
X153004291Y-116615059D01*
X153083900Y-116557573D01*
X153150864Y-116477878D01*
X153187473Y-116406475D01*
X153215054Y-116307688D01*
X153223297Y-116208464D01*
X153215512Y-116100272D01*
X153213852Y-116088960D01*
X153152302Y-115691332D01*
X153129698Y-115591212D01*
X153111423Y-115540512D01*
X153487129Y-115540512D01*
X153495681Y-115652004D01*
X153498150Y-115668862D01*
X153514759Y-115775352D01*
X153853768Y-115775352D01*
X153839602Y-115691332D01*
X153832932Y-115592130D01*
X153855666Y-115490750D01*
X153880146Y-115450509D01*
X153958821Y-115390202D01*
X154054268Y-115367802D01*
X154088729Y-115366489D01*
X154188495Y-115378511D01*
X154280295Y-115418665D01*
X154322714Y-115451974D01*
X154386137Y-115532482D01*
X154426219Y-115627118D01*
X154441416Y-115691332D01*
X154592847Y-116660000D01*
X154920132Y-116660000D01*
X154676866Y-115119804D01*
X155173656Y-115119804D01*
X155248216Y-115589025D01*
X155498499Y-117164117D01*
X155825785Y-117164117D01*
X155755931Y-116727411D01*
X155689009Y-116365931D01*
X155701442Y-116365931D01*
X155706807Y-116388134D01*
X155751859Y-116482339D01*
X155816659Y-116561184D01*
X155839951Y-116581842D01*
X155926561Y-116637741D01*
X156025194Y-116672937D01*
X156124241Y-116686912D01*
X156159420Y-116687843D01*
X156267956Y-116677982D01*
X156361531Y-116648398D01*
X156448922Y-116591541D01*
X156503803Y-116530062D01*
X156550117Y-116443997D01*
X156577198Y-116344071D01*
X156585115Y-116245266D01*
X156578306Y-116135849D01*
X156573656Y-116102637D01*
X156506245Y-115677166D01*
X156486139Y-115580111D01*
X156453377Y-115481155D01*
X156409642Y-115391548D01*
X156394382Y-115366489D01*
X156331654Y-115282972D01*
X156258999Y-115213769D01*
X156184333Y-115163279D01*
X156094398Y-115122675D01*
X155997882Y-115098925D01*
X155904431Y-115091960D01*
X155804920Y-115100384D01*
X155704075Y-115133558D01*
X155620132Y-115198450D01*
X155567307Y-115289309D01*
X155549660Y-115391906D01*
X155551337Y-115413872D01*
X155543440Y-115413872D01*
X155495568Y-115119804D01*
X155173656Y-115119804D01*
X154676866Y-115119804D01*
X154366189Y-115119804D01*
X154413572Y-115413872D01*
X154409690Y-115413872D01*
X154401240Y-115389246D01*
X154354193Y-115300792D01*
X154287543Y-115219455D01*
X154206944Y-115157824D01*
X154112976Y-115116364D01*
X154005639Y-115095073D01*
X153940230Y-115091960D01*
X153837548Y-115099277D01*
X153735653Y-115125556D01*
X153640727Y-115177964D01*
X153573866Y-115244856D01*
X153520280Y-115340014D01*
X153493864Y-115440428D01*
X153487129Y-115540512D01*
X153111423Y-115540512D01*
X153096506Y-115499129D01*
X153047209Y-115406240D01*
X153023831Y-115371863D01*
X152957169Y-115293915D01*
X152879918Y-115227988D01*
X152792077Y-115174083D01*
X152773237Y-115164745D01*
X152673718Y-115126362D01*
X152577380Y-115103973D01*
X152474628Y-115093098D01*
X152426901Y-115091960D01*
X152322165Y-115097718D01*
X152218572Y-115117620D01*
X152120157Y-115155931D01*
X152104012Y-115164745D01*
X152024787Y-115222057D01*
X151957582Y-115301169D01*
X151920341Y-115371863D01*
X151891706Y-115470220D01*
X151883005Y-115570054D01*
X151441564Y-115570054D01*
X151370307Y-115119804D01*
X151048394Y-115119804D01*
X151095778Y-115413872D01*
X151087919Y-115413872D01*
X151082051Y-115390605D01*
X151036370Y-115295942D01*
X150971799Y-115217402D01*
X150948743Y-115196985D01*
X150862953Y-115141601D01*
X150764951Y-115106729D01*
X150666307Y-115092883D01*
X150631228Y-115091960D01*
X150523700Y-115101242D01*
X150420102Y-115133871D01*
X150334896Y-115189993D01*
X150288311Y-115240460D01*
X150236615Y-115332376D01*
X150211358Y-115428157D01*
X150205581Y-115537189D01*
X149782164Y-115537189D01*
X149728018Y-115195519D01*
X149705413Y-115095519D01*
X149672222Y-115003247D01*
X149622925Y-114909786D01*
X149599546Y-114875073D01*
X149532455Y-114796066D01*
X149453916Y-114728794D01*
X149363928Y-114673258D01*
X149344556Y-114663558D01*
X149253263Y-114626958D01*
X149155787Y-114602336D01*
X149052129Y-114589692D01*
X148991870Y-114587843D01*
X148885369Y-114593832D01*
X148779543Y-114614536D01*
X148686884Y-114650027D01*
X148661653Y-114663558D01*
X148579983Y-114722712D01*
X148511427Y-114803439D01*
X148474075Y-114875073D01*
X148445728Y-114974207D01*
X148437790Y-115074346D01*
X148005165Y-115074346D01*
X147932344Y-114616175D01*
X147604570Y-114616175D01*
X147674424Y-115052882D01*
X147741835Y-115413872D01*
X147731649Y-115413872D01*
X147726285Y-115391906D01*
X147680566Y-115297872D01*
X147614621Y-115219104D01*
X147590893Y-115198450D01*
X147503023Y-115142294D01*
X147404276Y-115106936D01*
X147306105Y-115092896D01*
X147271423Y-115091960D01*
X147162704Y-115101852D01*
X147069068Y-115131528D01*
X146981754Y-115188560D01*
X146927041Y-115250230D01*
X146880726Y-115336264D01*
X146853646Y-115436099D01*
X146845728Y-115534774D01*
X146623506Y-115534774D01*
X146623506Y-114365621D01*
X156807337Y-114365621D01*
X156807337Y-117386339D01*
G37*
D13*
X155910401Y-90122419D02*
X155910401Y-90836704D01*
X155910401Y-90836704D02*
X155958020Y-90979561D01*
X155958020Y-90979561D02*
X156053258Y-91074800D01*
X156053258Y-91074800D02*
X156196115Y-91122419D01*
X156196115Y-91122419D02*
X156291353Y-91122419D01*
X154958020Y-91122419D02*
X155434210Y-91122419D01*
X155434210Y-91122419D02*
X155434210Y-90122419D01*
X154053258Y-91027180D02*
X154100877Y-91074800D01*
X154100877Y-91074800D02*
X154243734Y-91122419D01*
X154243734Y-91122419D02*
X154338972Y-91122419D01*
X154338972Y-91122419D02*
X154481829Y-91074800D01*
X154481829Y-91074800D02*
X154577067Y-90979561D01*
X154577067Y-90979561D02*
X154624686Y-90884323D01*
X154624686Y-90884323D02*
X154672305Y-90693847D01*
X154672305Y-90693847D02*
X154672305Y-90550990D01*
X154672305Y-90550990D02*
X154624686Y-90360514D01*
X154624686Y-90360514D02*
X154577067Y-90265276D01*
X154577067Y-90265276D02*
X154481829Y-90170038D01*
X154481829Y-90170038D02*
X154338972Y-90122419D01*
X154338972Y-90122419D02*
X154243734Y-90122419D01*
X154243734Y-90122419D02*
X154100877Y-90170038D01*
X154100877Y-90170038D02*
X154053258Y-90217657D01*
X153338972Y-90122419D02*
X153338972Y-90836704D01*
X153338972Y-90836704D02*
X153386591Y-90979561D01*
X153386591Y-90979561D02*
X153481829Y-91074800D01*
X153481829Y-91074800D02*
X153624686Y-91122419D01*
X153624686Y-91122419D02*
X153719924Y-91122419D01*
X152386591Y-91122419D02*
X152862781Y-91122419D01*
X152862781Y-91122419D02*
X152862781Y-90122419D01*
X151481829Y-91027180D02*
X151529448Y-91074800D01*
X151529448Y-91074800D02*
X151672305Y-91122419D01*
X151672305Y-91122419D02*
X151767543Y-91122419D01*
X151767543Y-91122419D02*
X151910400Y-91074800D01*
X151910400Y-91074800D02*
X152005638Y-90979561D01*
X152005638Y-90979561D02*
X152053257Y-90884323D01*
X152053257Y-90884323D02*
X152100876Y-90693847D01*
X152100876Y-90693847D02*
X152100876Y-90550990D01*
X152100876Y-90550990D02*
X152053257Y-90360514D01*
X152053257Y-90360514D02*
X152005638Y-90265276D01*
X152005638Y-90265276D02*
X151910400Y-90170038D01*
X151910400Y-90170038D02*
X151767543Y-90122419D01*
X151767543Y-90122419D02*
X151672305Y-90122419D01*
X151672305Y-90122419D02*
X151529448Y-90170038D01*
X151529448Y-90170038D02*
X151481829Y-90217657D01*
X150767543Y-90122419D02*
X150767543Y-90836704D01*
X150767543Y-90836704D02*
X150815162Y-90979561D01*
X150815162Y-90979561D02*
X150910400Y-91074800D01*
X150910400Y-91074800D02*
X151053257Y-91122419D01*
X151053257Y-91122419D02*
X151148495Y-91122419D01*
X149815162Y-91122419D02*
X150291352Y-91122419D01*
X150291352Y-91122419D02*
X150291352Y-90122419D01*
X148910400Y-91027180D02*
X148958019Y-91074800D01*
X148958019Y-91074800D02*
X149100876Y-91122419D01*
X149100876Y-91122419D02*
X149196114Y-91122419D01*
X149196114Y-91122419D02*
X149338971Y-91074800D01*
X149338971Y-91074800D02*
X149434209Y-90979561D01*
X149434209Y-90979561D02*
X149481828Y-90884323D01*
X149481828Y-90884323D02*
X149529447Y-90693847D01*
X149529447Y-90693847D02*
X149529447Y-90550990D01*
X149529447Y-90550990D02*
X149481828Y-90360514D01*
X149481828Y-90360514D02*
X149434209Y-90265276D01*
X149434209Y-90265276D02*
X149338971Y-90170038D01*
X149338971Y-90170038D02*
X149196114Y-90122419D01*
X149196114Y-90122419D02*
X149100876Y-90122419D01*
X149100876Y-90122419D02*
X148958019Y-90170038D01*
X148958019Y-90170038D02*
X148910400Y-90217657D01*
X148196114Y-90122419D02*
X148196114Y-90836704D01*
X148196114Y-90836704D02*
X148243733Y-90979561D01*
X148243733Y-90979561D02*
X148338971Y-91074800D01*
X148338971Y-91074800D02*
X148481828Y-91122419D01*
X148481828Y-91122419D02*
X148577066Y-91122419D01*
X147243733Y-91122419D02*
X147719923Y-91122419D01*
X147719923Y-91122419D02*
X147719923Y-90122419D01*
X146338971Y-91027180D02*
X146386590Y-91074800D01*
X146386590Y-91074800D02*
X146529447Y-91122419D01*
X146529447Y-91122419D02*
X146624685Y-91122419D01*
X146624685Y-91122419D02*
X146767542Y-91074800D01*
X146767542Y-91074800D02*
X146862780Y-90979561D01*
X146862780Y-90979561D02*
X146910399Y-90884323D01*
X146910399Y-90884323D02*
X146958018Y-90693847D01*
X146958018Y-90693847D02*
X146958018Y-90550990D01*
X146958018Y-90550990D02*
X146910399Y-90360514D01*
X146910399Y-90360514D02*
X146862780Y-90265276D01*
X146862780Y-90265276D02*
X146767542Y-90170038D01*
X146767542Y-90170038D02*
X146624685Y-90122419D01*
X146624685Y-90122419D02*
X146529447Y-90122419D01*
X146529447Y-90122419D02*
X146386590Y-90170038D01*
X146386590Y-90170038D02*
X146338971Y-90217657D01*
D14*
X152285714Y-111931009D02*
X152142857Y-111978628D01*
X152142857Y-111978628D02*
X152095238Y-112026247D01*
X152095238Y-112026247D02*
X152047619Y-112121485D01*
X152047619Y-112121485D02*
X152047619Y-112264342D01*
X152047619Y-112264342D02*
X152095238Y-112359580D01*
X152095238Y-112359580D02*
X152142857Y-112407200D01*
X152142857Y-112407200D02*
X152238095Y-112454819D01*
X152238095Y-112454819D02*
X152619047Y-112454819D01*
X152619047Y-112454819D02*
X152619047Y-111454819D01*
X152619047Y-111454819D02*
X152285714Y-111454819D01*
X152285714Y-111454819D02*
X152190476Y-111502438D01*
X152190476Y-111502438D02*
X152142857Y-111550057D01*
X152142857Y-111550057D02*
X152095238Y-111645295D01*
X152095238Y-111645295D02*
X152095238Y-111740533D01*
X152095238Y-111740533D02*
X152142857Y-111835771D01*
X152142857Y-111835771D02*
X152190476Y-111883390D01*
X152190476Y-111883390D02*
X152285714Y-111931009D01*
X152285714Y-111931009D02*
X152619047Y-111931009D01*
X151761904Y-111454819D02*
X151190476Y-111454819D01*
X151476190Y-112454819D02*
X151476190Y-111454819D01*
X150333333Y-112454819D02*
X150904761Y-112454819D01*
X150619047Y-112454819D02*
X150619047Y-111454819D01*
X150619047Y-111454819D02*
X150714285Y-111597676D01*
X150714285Y-111597676D02*
X150809523Y-111692914D01*
X150809523Y-111692914D02*
X150904761Y-111740533D01*
D15*
%TO.C,BT1*%
X156680001Y-92160001D02*
G75*
G02*
X162177059Y-94200000I2369999J-2040000D01*
G01*
X156669999Y-92169999D02*
G75*
G02*
X146193578Y-92032608I-5169999J5270000D01*
G01*
X140820000Y-94200000D02*
G75*
G02*
X146183548Y-92007247I3130000J0D01*
G01*
X167250000Y-97700000D02*
X167250000Y-103300000D01*
X162180000Y-104750000D02*
X162180000Y-103300000D01*
X162180000Y-103300000D02*
X167250000Y-103300000D01*
X162180000Y-97700000D02*
X167250000Y-97700000D01*
X162180000Y-94220000D02*
X162180000Y-97700000D01*
X155300000Y-111130000D02*
X162180000Y-104750000D01*
X155300000Y-111130000D02*
X147700000Y-111130000D01*
X147700000Y-111130000D02*
X140820000Y-104750000D01*
X140820000Y-104750000D02*
X140820000Y-103300000D01*
X140820000Y-97700000D02*
X135750000Y-97700000D01*
X140820000Y-94150000D02*
X140820000Y-97700000D01*
X135750000Y-103300000D02*
X140820000Y-103300000D01*
X135750000Y-97700000D02*
X135750000Y-103300000D01*
%TD*%
M02*
