%TF.GenerationSoftware,KiCad,Pcbnew,8.0.7-1.fc40*%
%TF.CreationDate,2025-01-15T23:39:26+03:00*%
%TF.ProjectId,qneo,716e656f-2e6b-4696-9361-645f70636258,rev?*%
%TF.SameCoordinates,Original*%
%TF.FileFunction,Legend,Top*%
%TF.FilePolarity,Positive*%
%FSLAX46Y46*%
G04 Gerber Fmt 4.6, Leading zero omitted, Abs format (unit mm)*
G04 Created by KiCad (PCBNEW 8.0.7-1.fc40) date 2025-01-15 23:39:26*
%MOMM*%
%LPD*%
G01*
G04 APERTURE LIST*
%ADD10C,0.150000*%
%ADD11C,0.120000*%
G04 APERTURE END LIST*
D10*
X150500000Y-116053450D02*
X150607143Y-116089164D01*
X150607143Y-116089164D02*
X150785714Y-116089164D01*
X150785714Y-116089164D02*
X150857143Y-116053450D01*
X150857143Y-116053450D02*
X150892857Y-116017735D01*
X150892857Y-116017735D02*
X150928571Y-115946307D01*
X150928571Y-115946307D02*
X150928571Y-115874878D01*
X150928571Y-115874878D02*
X150892857Y-115803450D01*
X150892857Y-115803450D02*
X150857143Y-115767735D01*
X150857143Y-115767735D02*
X150785714Y-115732021D01*
X150785714Y-115732021D02*
X150642857Y-115696307D01*
X150642857Y-115696307D02*
X150571428Y-115660592D01*
X150571428Y-115660592D02*
X150535714Y-115624878D01*
X150535714Y-115624878D02*
X150500000Y-115553450D01*
X150500000Y-115553450D02*
X150500000Y-115482021D01*
X150500000Y-115482021D02*
X150535714Y-115410592D01*
X150535714Y-115410592D02*
X150571428Y-115374878D01*
X150571428Y-115374878D02*
X150642857Y-115339164D01*
X150642857Y-115339164D02*
X150821428Y-115339164D01*
X150821428Y-115339164D02*
X150928571Y-115374878D01*
X151178571Y-115339164D02*
X151357143Y-116089164D01*
X151357143Y-116089164D02*
X151500000Y-115553450D01*
X151500000Y-115553450D02*
X151642857Y-116089164D01*
X151642857Y-116089164D02*
X151821429Y-115339164D01*
X152500000Y-116089164D02*
X152071429Y-116089164D01*
X152285714Y-116089164D02*
X152285714Y-115339164D01*
X152285714Y-115339164D02*
X152214286Y-115446307D01*
X152214286Y-115446307D02*
X152142857Y-115517735D01*
X152142857Y-115517735D02*
X152071429Y-115553450D01*
X135171786Y-109651436D02*
X135247547Y-109222122D01*
X134868740Y-109348391D02*
X135399070Y-108818061D01*
X135399070Y-108818061D02*
X135601101Y-109020091D01*
X135601101Y-109020091D02*
X135626354Y-109095853D01*
X135626354Y-109095853D02*
X135626354Y-109146360D01*
X135626354Y-109146360D02*
X135601101Y-109222122D01*
X135601101Y-109222122D02*
X135525339Y-109297883D01*
X135525339Y-109297883D02*
X135449578Y-109323137D01*
X135449578Y-109323137D02*
X135399070Y-109323137D01*
X135399070Y-109323137D02*
X135323309Y-109297883D01*
X135323309Y-109297883D02*
X135121278Y-109095853D01*
X135979908Y-109752452D02*
X135626354Y-110106005D01*
X136055669Y-109424152D02*
X135550593Y-109676690D01*
X135550593Y-109676690D02*
X135878892Y-110004990D01*
X159940178Y-107159164D02*
X159940178Y-106409164D01*
X159940178Y-106409164D02*
X160118749Y-106409164D01*
X160118749Y-106409164D02*
X160225892Y-106444878D01*
X160225892Y-106444878D02*
X160297321Y-106516307D01*
X160297321Y-106516307D02*
X160333035Y-106587735D01*
X160333035Y-106587735D02*
X160368749Y-106730592D01*
X160368749Y-106730592D02*
X160368749Y-106837735D01*
X160368749Y-106837735D02*
X160333035Y-106980592D01*
X160333035Y-106980592D02*
X160297321Y-107052021D01*
X160297321Y-107052021D02*
X160225892Y-107123450D01*
X160225892Y-107123450D02*
X160118749Y-107159164D01*
X160118749Y-107159164D02*
X159940178Y-107159164D01*
X160797321Y-106730592D02*
X160725892Y-106694878D01*
X160725892Y-106694878D02*
X160690178Y-106659164D01*
X160690178Y-106659164D02*
X160654464Y-106587735D01*
X160654464Y-106587735D02*
X160654464Y-106552021D01*
X160654464Y-106552021D02*
X160690178Y-106480592D01*
X160690178Y-106480592D02*
X160725892Y-106444878D01*
X160725892Y-106444878D02*
X160797321Y-106409164D01*
X160797321Y-106409164D02*
X160940178Y-106409164D01*
X160940178Y-106409164D02*
X161011607Y-106444878D01*
X161011607Y-106444878D02*
X161047321Y-106480592D01*
X161047321Y-106480592D02*
X161083035Y-106552021D01*
X161083035Y-106552021D02*
X161083035Y-106587735D01*
X161083035Y-106587735D02*
X161047321Y-106659164D01*
X161047321Y-106659164D02*
X161011607Y-106694878D01*
X161011607Y-106694878D02*
X160940178Y-106730592D01*
X160940178Y-106730592D02*
X160797321Y-106730592D01*
X160797321Y-106730592D02*
X160725892Y-106766307D01*
X160725892Y-106766307D02*
X160690178Y-106802021D01*
X160690178Y-106802021D02*
X160654464Y-106873450D01*
X160654464Y-106873450D02*
X160654464Y-107016307D01*
X160654464Y-107016307D02*
X160690178Y-107087735D01*
X160690178Y-107087735D02*
X160725892Y-107123450D01*
X160725892Y-107123450D02*
X160797321Y-107159164D01*
X160797321Y-107159164D02*
X160940178Y-107159164D01*
X160940178Y-107159164D02*
X161011607Y-107123450D01*
X161011607Y-107123450D02*
X161047321Y-107087735D01*
X161047321Y-107087735D02*
X161083035Y-107016307D01*
X161083035Y-107016307D02*
X161083035Y-106873450D01*
X161083035Y-106873450D02*
X161047321Y-106802021D01*
X161047321Y-106802021D02*
X161011607Y-106766307D01*
X161011607Y-106766307D02*
X160940178Y-106730592D01*
X134589164Y-120071428D02*
X135196307Y-120071428D01*
X135196307Y-120071428D02*
X135267735Y-120035714D01*
X135267735Y-120035714D02*
X135303450Y-120000000D01*
X135303450Y-120000000D02*
X135339164Y-119928571D01*
X135339164Y-119928571D02*
X135339164Y-119785714D01*
X135339164Y-119785714D02*
X135303450Y-119714285D01*
X135303450Y-119714285D02*
X135267735Y-119678571D01*
X135267735Y-119678571D02*
X135196307Y-119642857D01*
X135196307Y-119642857D02*
X134589164Y-119642857D01*
X134589164Y-119357143D02*
X134589164Y-118892857D01*
X134589164Y-118892857D02*
X134874878Y-119142857D01*
X134874878Y-119142857D02*
X134874878Y-119035714D01*
X134874878Y-119035714D02*
X134910592Y-118964286D01*
X134910592Y-118964286D02*
X134946307Y-118928571D01*
X134946307Y-118928571D02*
X135017735Y-118892857D01*
X135017735Y-118892857D02*
X135196307Y-118892857D01*
X135196307Y-118892857D02*
X135267735Y-118928571D01*
X135267735Y-118928571D02*
X135303450Y-118964286D01*
X135303450Y-118964286D02*
X135339164Y-119035714D01*
X135339164Y-119035714D02*
X135339164Y-119250000D01*
X135339164Y-119250000D02*
X135303450Y-119321428D01*
X135303450Y-119321428D02*
X135267735Y-119357143D01*
X141583035Y-115159164D02*
X141583035Y-114409164D01*
X141583035Y-114409164D02*
X141761606Y-114409164D01*
X141761606Y-114409164D02*
X141868749Y-114444878D01*
X141868749Y-114444878D02*
X141940178Y-114516307D01*
X141940178Y-114516307D02*
X141975892Y-114587735D01*
X141975892Y-114587735D02*
X142011606Y-114730592D01*
X142011606Y-114730592D02*
X142011606Y-114837735D01*
X142011606Y-114837735D02*
X141975892Y-114980592D01*
X141975892Y-114980592D02*
X141940178Y-115052021D01*
X141940178Y-115052021D02*
X141868749Y-115123450D01*
X141868749Y-115123450D02*
X141761606Y-115159164D01*
X141761606Y-115159164D02*
X141583035Y-115159164D01*
X142725892Y-115159164D02*
X142297321Y-115159164D01*
X142511606Y-115159164D02*
X142511606Y-114409164D01*
X142511606Y-114409164D02*
X142440178Y-114516307D01*
X142440178Y-114516307D02*
X142368749Y-114587735D01*
X142368749Y-114587735D02*
X142297321Y-114623450D01*
X142975892Y-114409164D02*
X143440178Y-114409164D01*
X143440178Y-114409164D02*
X143190178Y-114694878D01*
X143190178Y-114694878D02*
X143297321Y-114694878D01*
X143297321Y-114694878D02*
X143368750Y-114730592D01*
X143368750Y-114730592D02*
X143404464Y-114766307D01*
X143404464Y-114766307D02*
X143440178Y-114837735D01*
X143440178Y-114837735D02*
X143440178Y-115016307D01*
X143440178Y-115016307D02*
X143404464Y-115087735D01*
X143404464Y-115087735D02*
X143368750Y-115123450D01*
X143368750Y-115123450D02*
X143297321Y-115159164D01*
X143297321Y-115159164D02*
X143083035Y-115159164D01*
X143083035Y-115159164D02*
X143011607Y-115123450D01*
X143011607Y-115123450D02*
X142975892Y-115087735D01*
X153595535Y-115159164D02*
X153595535Y-114409164D01*
X153595535Y-114409164D02*
X153774106Y-114409164D01*
X153774106Y-114409164D02*
X153881249Y-114444878D01*
X153881249Y-114444878D02*
X153952678Y-114516307D01*
X153952678Y-114516307D02*
X153988392Y-114587735D01*
X153988392Y-114587735D02*
X154024106Y-114730592D01*
X154024106Y-114730592D02*
X154024106Y-114837735D01*
X154024106Y-114837735D02*
X153988392Y-114980592D01*
X153988392Y-114980592D02*
X153952678Y-115052021D01*
X153952678Y-115052021D02*
X153881249Y-115123450D01*
X153881249Y-115123450D02*
X153774106Y-115159164D01*
X153774106Y-115159164D02*
X153595535Y-115159164D01*
X154738392Y-115159164D02*
X154309821Y-115159164D01*
X154524106Y-115159164D02*
X154524106Y-114409164D01*
X154524106Y-114409164D02*
X154452678Y-114516307D01*
X154452678Y-114516307D02*
X154381249Y-114587735D01*
X154381249Y-114587735D02*
X154309821Y-114623450D01*
X155416964Y-114409164D02*
X155059821Y-114409164D01*
X155059821Y-114409164D02*
X155024107Y-114766307D01*
X155024107Y-114766307D02*
X155059821Y-114730592D01*
X155059821Y-114730592D02*
X155131250Y-114694878D01*
X155131250Y-114694878D02*
X155309821Y-114694878D01*
X155309821Y-114694878D02*
X155381250Y-114730592D01*
X155381250Y-114730592D02*
X155416964Y-114766307D01*
X155416964Y-114766307D02*
X155452678Y-114837735D01*
X155452678Y-114837735D02*
X155452678Y-115016307D01*
X155452678Y-115016307D02*
X155416964Y-115087735D01*
X155416964Y-115087735D02*
X155381250Y-115123450D01*
X155381250Y-115123450D02*
X155309821Y-115159164D01*
X155309821Y-115159164D02*
X155131250Y-115159164D01*
X155131250Y-115159164D02*
X155059821Y-115123450D01*
X155059821Y-115123450D02*
X155024107Y-115087735D01*
X166919164Y-118479999D02*
X167454878Y-118479999D01*
X167454878Y-118479999D02*
X167562021Y-118515714D01*
X167562021Y-118515714D02*
X167633450Y-118587142D01*
X167633450Y-118587142D02*
X167669164Y-118694285D01*
X167669164Y-118694285D02*
X167669164Y-118765714D01*
X166990592Y-118158570D02*
X166954878Y-118122856D01*
X166954878Y-118122856D02*
X166919164Y-118051428D01*
X166919164Y-118051428D02*
X166919164Y-117872856D01*
X166919164Y-117872856D02*
X166954878Y-117801428D01*
X166954878Y-117801428D02*
X166990592Y-117765713D01*
X166990592Y-117765713D02*
X167062021Y-117729999D01*
X167062021Y-117729999D02*
X167133450Y-117729999D01*
X167133450Y-117729999D02*
X167240592Y-117765713D01*
X167240592Y-117765713D02*
X167669164Y-118194285D01*
X167669164Y-118194285D02*
X167669164Y-117729999D01*
X141940178Y-103159164D02*
X141940178Y-102409164D01*
X141940178Y-102409164D02*
X142118749Y-102409164D01*
X142118749Y-102409164D02*
X142225892Y-102444878D01*
X142225892Y-102444878D02*
X142297321Y-102516307D01*
X142297321Y-102516307D02*
X142333035Y-102587735D01*
X142333035Y-102587735D02*
X142368749Y-102730592D01*
X142368749Y-102730592D02*
X142368749Y-102837735D01*
X142368749Y-102837735D02*
X142333035Y-102980592D01*
X142333035Y-102980592D02*
X142297321Y-103052021D01*
X142297321Y-103052021D02*
X142225892Y-103123450D01*
X142225892Y-103123450D02*
X142118749Y-103159164D01*
X142118749Y-103159164D02*
X141940178Y-103159164D01*
X143083035Y-103159164D02*
X142654464Y-103159164D01*
X142868749Y-103159164D02*
X142868749Y-102409164D01*
X142868749Y-102409164D02*
X142797321Y-102516307D01*
X142797321Y-102516307D02*
X142725892Y-102587735D01*
X142725892Y-102587735D02*
X142654464Y-102623450D01*
X153874999Y-91767735D02*
X153839285Y-91803450D01*
X153839285Y-91803450D02*
X153732142Y-91839164D01*
X153732142Y-91839164D02*
X153660714Y-91839164D01*
X153660714Y-91839164D02*
X153553571Y-91803450D01*
X153553571Y-91803450D02*
X153482142Y-91732021D01*
X153482142Y-91732021D02*
X153446428Y-91660592D01*
X153446428Y-91660592D02*
X153410714Y-91517735D01*
X153410714Y-91517735D02*
X153410714Y-91410592D01*
X153410714Y-91410592D02*
X153446428Y-91267735D01*
X153446428Y-91267735D02*
X153482142Y-91196307D01*
X153482142Y-91196307D02*
X153553571Y-91124878D01*
X153553571Y-91124878D02*
X153660714Y-91089164D01*
X153660714Y-91089164D02*
X153732142Y-91089164D01*
X153732142Y-91089164D02*
X153839285Y-91124878D01*
X153839285Y-91124878D02*
X153874999Y-91160592D01*
X154124999Y-91089164D02*
X154589285Y-91089164D01*
X154589285Y-91089164D02*
X154339285Y-91374878D01*
X154339285Y-91374878D02*
X154446428Y-91374878D01*
X154446428Y-91374878D02*
X154517857Y-91410592D01*
X154517857Y-91410592D02*
X154553571Y-91446307D01*
X154553571Y-91446307D02*
X154589285Y-91517735D01*
X154589285Y-91517735D02*
X154589285Y-91696307D01*
X154589285Y-91696307D02*
X154553571Y-91767735D01*
X154553571Y-91767735D02*
X154517857Y-91803450D01*
X154517857Y-91803450D02*
X154446428Y-91839164D01*
X154446428Y-91839164D02*
X154232142Y-91839164D01*
X154232142Y-91839164D02*
X154160714Y-91803450D01*
X154160714Y-91803450D02*
X154124999Y-91767735D01*
X135417735Y-94625000D02*
X135453450Y-94660714D01*
X135453450Y-94660714D02*
X135489164Y-94767857D01*
X135489164Y-94767857D02*
X135489164Y-94839285D01*
X135489164Y-94839285D02*
X135453450Y-94946428D01*
X135453450Y-94946428D02*
X135382021Y-95017857D01*
X135382021Y-95017857D02*
X135310592Y-95053571D01*
X135310592Y-95053571D02*
X135167735Y-95089285D01*
X135167735Y-95089285D02*
X135060592Y-95089285D01*
X135060592Y-95089285D02*
X134917735Y-95053571D01*
X134917735Y-95053571D02*
X134846307Y-95017857D01*
X134846307Y-95017857D02*
X134774878Y-94946428D01*
X134774878Y-94946428D02*
X134739164Y-94839285D01*
X134739164Y-94839285D02*
X134739164Y-94767857D01*
X134739164Y-94767857D02*
X134774878Y-94660714D01*
X134774878Y-94660714D02*
X134810592Y-94625000D01*
X135489164Y-93910714D02*
X135489164Y-94339285D01*
X135489164Y-94125000D02*
X134739164Y-94125000D01*
X134739164Y-94125000D02*
X134846307Y-94196428D01*
X134846307Y-94196428D02*
X134917735Y-94267857D01*
X134917735Y-94267857D02*
X134953450Y-94339285D01*
X138809164Y-95071428D02*
X139416307Y-95071428D01*
X139416307Y-95071428D02*
X139487735Y-95035714D01*
X139487735Y-95035714D02*
X139523450Y-95000000D01*
X139523450Y-95000000D02*
X139559164Y-94928571D01*
X139559164Y-94928571D02*
X139559164Y-94785714D01*
X139559164Y-94785714D02*
X139523450Y-94714285D01*
X139523450Y-94714285D02*
X139487735Y-94678571D01*
X139487735Y-94678571D02*
X139416307Y-94642857D01*
X139416307Y-94642857D02*
X138809164Y-94642857D01*
X139559164Y-93892857D02*
X139559164Y-94321428D01*
X139559164Y-94107143D02*
X138809164Y-94107143D01*
X138809164Y-94107143D02*
X138916307Y-94178571D01*
X138916307Y-94178571D02*
X138987735Y-94250000D01*
X138987735Y-94250000D02*
X139023450Y-94321428D01*
X147374999Y-121267735D02*
X147339285Y-121303450D01*
X147339285Y-121303450D02*
X147232142Y-121339164D01*
X147232142Y-121339164D02*
X147160714Y-121339164D01*
X147160714Y-121339164D02*
X147053571Y-121303450D01*
X147053571Y-121303450D02*
X146982142Y-121232021D01*
X146982142Y-121232021D02*
X146946428Y-121160592D01*
X146946428Y-121160592D02*
X146910714Y-121017735D01*
X146910714Y-121017735D02*
X146910714Y-120910592D01*
X146910714Y-120910592D02*
X146946428Y-120767735D01*
X146946428Y-120767735D02*
X146982142Y-120696307D01*
X146982142Y-120696307D02*
X147053571Y-120624878D01*
X147053571Y-120624878D02*
X147160714Y-120589164D01*
X147160714Y-120589164D02*
X147232142Y-120589164D01*
X147232142Y-120589164D02*
X147339285Y-120624878D01*
X147339285Y-120624878D02*
X147374999Y-120660592D01*
X148017857Y-120839164D02*
X148017857Y-121339164D01*
X147839285Y-120553450D02*
X147660714Y-121089164D01*
X147660714Y-121089164D02*
X148124999Y-121089164D01*
X165642857Y-104482021D02*
X165642857Y-104839164D01*
X165392857Y-104089164D02*
X165642857Y-104482021D01*
X165642857Y-104482021D02*
X165892857Y-104089164D01*
X166535714Y-104839164D02*
X166107143Y-104839164D01*
X166321428Y-104839164D02*
X166321428Y-104089164D01*
X166321428Y-104089164D02*
X166250000Y-104196307D01*
X166250000Y-104196307D02*
X166178571Y-104267735D01*
X166178571Y-104267735D02*
X166107143Y-104303450D01*
X135171786Y-105651436D02*
X135247547Y-105222122D01*
X134868740Y-105348391D02*
X135399070Y-104818061D01*
X135399070Y-104818061D02*
X135601101Y-105020091D01*
X135601101Y-105020091D02*
X135626354Y-105095853D01*
X135626354Y-105095853D02*
X135626354Y-105146360D01*
X135626354Y-105146360D02*
X135601101Y-105222122D01*
X135601101Y-105222122D02*
X135525339Y-105297883D01*
X135525339Y-105297883D02*
X135449578Y-105323137D01*
X135449578Y-105323137D02*
X135399070Y-105323137D01*
X135399070Y-105323137D02*
X135323309Y-105297883D01*
X135323309Y-105297883D02*
X135121278Y-105095853D01*
X135878892Y-105297883D02*
X136207192Y-105626183D01*
X136207192Y-105626183D02*
X135828385Y-105651436D01*
X135828385Y-105651436D02*
X135904146Y-105727198D01*
X135904146Y-105727198D02*
X135929400Y-105802959D01*
X135929400Y-105802959D02*
X135929400Y-105853467D01*
X135929400Y-105853467D02*
X135904146Y-105929228D01*
X135904146Y-105929228D02*
X135777877Y-106055497D01*
X135777877Y-106055497D02*
X135702116Y-106080751D01*
X135702116Y-106080751D02*
X135651608Y-106080751D01*
X135651608Y-106080751D02*
X135575847Y-106055497D01*
X135575847Y-106055497D02*
X135424324Y-105903975D01*
X135424324Y-105903975D02*
X135399070Y-105828213D01*
X135399070Y-105828213D02*
X135399070Y-105777705D01*
X153874999Y-98267735D02*
X153839285Y-98303450D01*
X153839285Y-98303450D02*
X153732142Y-98339164D01*
X153732142Y-98339164D02*
X153660714Y-98339164D01*
X153660714Y-98339164D02*
X153553571Y-98303450D01*
X153553571Y-98303450D02*
X153482142Y-98232021D01*
X153482142Y-98232021D02*
X153446428Y-98160592D01*
X153446428Y-98160592D02*
X153410714Y-98017735D01*
X153410714Y-98017735D02*
X153410714Y-97910592D01*
X153410714Y-97910592D02*
X153446428Y-97767735D01*
X153446428Y-97767735D02*
X153482142Y-97696307D01*
X153482142Y-97696307D02*
X153553571Y-97624878D01*
X153553571Y-97624878D02*
X153660714Y-97589164D01*
X153660714Y-97589164D02*
X153732142Y-97589164D01*
X153732142Y-97589164D02*
X153839285Y-97624878D01*
X153839285Y-97624878D02*
X153874999Y-97660592D01*
X154160714Y-97660592D02*
X154196428Y-97624878D01*
X154196428Y-97624878D02*
X154267857Y-97589164D01*
X154267857Y-97589164D02*
X154446428Y-97589164D01*
X154446428Y-97589164D02*
X154517857Y-97624878D01*
X154517857Y-97624878D02*
X154553571Y-97660592D01*
X154553571Y-97660592D02*
X154589285Y-97732021D01*
X154589285Y-97732021D02*
X154589285Y-97803450D01*
X154589285Y-97803450D02*
X154553571Y-97910592D01*
X154553571Y-97910592D02*
X154124999Y-98339164D01*
X154124999Y-98339164D02*
X154589285Y-98339164D01*
X147952678Y-103159164D02*
X147952678Y-102409164D01*
X147952678Y-102409164D02*
X148131249Y-102409164D01*
X148131249Y-102409164D02*
X148238392Y-102444878D01*
X148238392Y-102444878D02*
X148309821Y-102516307D01*
X148309821Y-102516307D02*
X148345535Y-102587735D01*
X148345535Y-102587735D02*
X148381249Y-102730592D01*
X148381249Y-102730592D02*
X148381249Y-102837735D01*
X148381249Y-102837735D02*
X148345535Y-102980592D01*
X148345535Y-102980592D02*
X148309821Y-103052021D01*
X148309821Y-103052021D02*
X148238392Y-103123450D01*
X148238392Y-103123450D02*
X148131249Y-103159164D01*
X148131249Y-103159164D02*
X147952678Y-103159164D01*
X148666964Y-102480592D02*
X148702678Y-102444878D01*
X148702678Y-102444878D02*
X148774107Y-102409164D01*
X148774107Y-102409164D02*
X148952678Y-102409164D01*
X148952678Y-102409164D02*
X149024107Y-102444878D01*
X149024107Y-102444878D02*
X149059821Y-102480592D01*
X149059821Y-102480592D02*
X149095535Y-102552021D01*
X149095535Y-102552021D02*
X149095535Y-102623450D01*
X149095535Y-102623450D02*
X149059821Y-102730592D01*
X149059821Y-102730592D02*
X148631249Y-103159164D01*
X148631249Y-103159164D02*
X149095535Y-103159164D01*
X153583035Y-111159164D02*
X153583035Y-110409164D01*
X153583035Y-110409164D02*
X153761606Y-110409164D01*
X153761606Y-110409164D02*
X153868749Y-110444878D01*
X153868749Y-110444878D02*
X153940178Y-110516307D01*
X153940178Y-110516307D02*
X153975892Y-110587735D01*
X153975892Y-110587735D02*
X154011606Y-110730592D01*
X154011606Y-110730592D02*
X154011606Y-110837735D01*
X154011606Y-110837735D02*
X153975892Y-110980592D01*
X153975892Y-110980592D02*
X153940178Y-111052021D01*
X153940178Y-111052021D02*
X153868749Y-111123450D01*
X153868749Y-111123450D02*
X153761606Y-111159164D01*
X153761606Y-111159164D02*
X153583035Y-111159164D01*
X154725892Y-111159164D02*
X154297321Y-111159164D01*
X154511606Y-111159164D02*
X154511606Y-110409164D01*
X154511606Y-110409164D02*
X154440178Y-110516307D01*
X154440178Y-110516307D02*
X154368749Y-110587735D01*
X154368749Y-110587735D02*
X154297321Y-110623450D01*
X155440178Y-111159164D02*
X155011607Y-111159164D01*
X155225892Y-111159164D02*
X155225892Y-110409164D01*
X155225892Y-110409164D02*
X155154464Y-110516307D01*
X155154464Y-110516307D02*
X155083035Y-110587735D01*
X155083035Y-110587735D02*
X155011607Y-110623450D01*
X159595535Y-111159164D02*
X159595535Y-110409164D01*
X159595535Y-110409164D02*
X159774106Y-110409164D01*
X159774106Y-110409164D02*
X159881249Y-110444878D01*
X159881249Y-110444878D02*
X159952678Y-110516307D01*
X159952678Y-110516307D02*
X159988392Y-110587735D01*
X159988392Y-110587735D02*
X160024106Y-110730592D01*
X160024106Y-110730592D02*
X160024106Y-110837735D01*
X160024106Y-110837735D02*
X159988392Y-110980592D01*
X159988392Y-110980592D02*
X159952678Y-111052021D01*
X159952678Y-111052021D02*
X159881249Y-111123450D01*
X159881249Y-111123450D02*
X159774106Y-111159164D01*
X159774106Y-111159164D02*
X159595535Y-111159164D01*
X160738392Y-111159164D02*
X160309821Y-111159164D01*
X160524106Y-111159164D02*
X160524106Y-110409164D01*
X160524106Y-110409164D02*
X160452678Y-110516307D01*
X160452678Y-110516307D02*
X160381249Y-110587735D01*
X160381249Y-110587735D02*
X160309821Y-110623450D01*
X161024107Y-110480592D02*
X161059821Y-110444878D01*
X161059821Y-110444878D02*
X161131250Y-110409164D01*
X161131250Y-110409164D02*
X161309821Y-110409164D01*
X161309821Y-110409164D02*
X161381250Y-110444878D01*
X161381250Y-110444878D02*
X161416964Y-110480592D01*
X161416964Y-110480592D02*
X161452678Y-110552021D01*
X161452678Y-110552021D02*
X161452678Y-110623450D01*
X161452678Y-110623450D02*
X161416964Y-110730592D01*
X161416964Y-110730592D02*
X160988392Y-111159164D01*
X160988392Y-111159164D02*
X161452678Y-111159164D01*
X163089164Y-92571428D02*
X163696307Y-92571428D01*
X163696307Y-92571428D02*
X163767735Y-92535714D01*
X163767735Y-92535714D02*
X163803450Y-92500000D01*
X163803450Y-92500000D02*
X163839164Y-92428571D01*
X163839164Y-92428571D02*
X163839164Y-92285714D01*
X163839164Y-92285714D02*
X163803450Y-92214285D01*
X163803450Y-92214285D02*
X163767735Y-92178571D01*
X163767735Y-92178571D02*
X163696307Y-92142857D01*
X163696307Y-92142857D02*
X163089164Y-92142857D01*
X163160592Y-91821428D02*
X163124878Y-91785714D01*
X163124878Y-91785714D02*
X163089164Y-91714286D01*
X163089164Y-91714286D02*
X163089164Y-91535714D01*
X163089164Y-91535714D02*
X163124878Y-91464286D01*
X163124878Y-91464286D02*
X163160592Y-91428571D01*
X163160592Y-91428571D02*
X163232021Y-91392857D01*
X163232021Y-91392857D02*
X163303450Y-91392857D01*
X163303450Y-91392857D02*
X163410592Y-91428571D01*
X163410592Y-91428571D02*
X163839164Y-91857143D01*
X163839164Y-91857143D02*
X163839164Y-91392857D01*
X135171786Y-101651436D02*
X135247547Y-101222122D01*
X134868740Y-101348391D02*
X135399070Y-100818061D01*
X135399070Y-100818061D02*
X135601101Y-101020091D01*
X135601101Y-101020091D02*
X135626354Y-101095853D01*
X135626354Y-101095853D02*
X135626354Y-101146360D01*
X135626354Y-101146360D02*
X135601101Y-101222122D01*
X135601101Y-101222122D02*
X135525339Y-101297883D01*
X135525339Y-101297883D02*
X135449578Y-101323137D01*
X135449578Y-101323137D02*
X135399070Y-101323137D01*
X135399070Y-101323137D02*
X135323309Y-101297883D01*
X135323309Y-101297883D02*
X135121278Y-101095853D01*
X135853639Y-101373644D02*
X135904146Y-101373644D01*
X135904146Y-101373644D02*
X135979908Y-101398898D01*
X135979908Y-101398898D02*
X136106177Y-101525167D01*
X136106177Y-101525167D02*
X136131431Y-101600929D01*
X136131431Y-101600929D02*
X136131431Y-101651436D01*
X136131431Y-101651436D02*
X136106177Y-101727198D01*
X136106177Y-101727198D02*
X136055669Y-101777705D01*
X136055669Y-101777705D02*
X135954654Y-101828213D01*
X135954654Y-101828213D02*
X135348562Y-101828213D01*
X135348562Y-101828213D02*
X135676862Y-102156513D01*
X147952678Y-107159164D02*
X147952678Y-106409164D01*
X147952678Y-106409164D02*
X148131249Y-106409164D01*
X148131249Y-106409164D02*
X148238392Y-106444878D01*
X148238392Y-106444878D02*
X148309821Y-106516307D01*
X148309821Y-106516307D02*
X148345535Y-106587735D01*
X148345535Y-106587735D02*
X148381249Y-106730592D01*
X148381249Y-106730592D02*
X148381249Y-106837735D01*
X148381249Y-106837735D02*
X148345535Y-106980592D01*
X148345535Y-106980592D02*
X148309821Y-107052021D01*
X148309821Y-107052021D02*
X148238392Y-107123450D01*
X148238392Y-107123450D02*
X148131249Y-107159164D01*
X148131249Y-107159164D02*
X147952678Y-107159164D01*
X149024107Y-106409164D02*
X148881249Y-106409164D01*
X148881249Y-106409164D02*
X148809821Y-106444878D01*
X148809821Y-106444878D02*
X148774107Y-106480592D01*
X148774107Y-106480592D02*
X148702678Y-106587735D01*
X148702678Y-106587735D02*
X148666964Y-106730592D01*
X148666964Y-106730592D02*
X148666964Y-107016307D01*
X148666964Y-107016307D02*
X148702678Y-107087735D01*
X148702678Y-107087735D02*
X148738392Y-107123450D01*
X148738392Y-107123450D02*
X148809821Y-107159164D01*
X148809821Y-107159164D02*
X148952678Y-107159164D01*
X148952678Y-107159164D02*
X149024107Y-107123450D01*
X149024107Y-107123450D02*
X149059821Y-107087735D01*
X149059821Y-107087735D02*
X149095535Y-107016307D01*
X149095535Y-107016307D02*
X149095535Y-106837735D01*
X149095535Y-106837735D02*
X149059821Y-106766307D01*
X149059821Y-106766307D02*
X149024107Y-106730592D01*
X149024107Y-106730592D02*
X148952678Y-106694878D01*
X148952678Y-106694878D02*
X148809821Y-106694878D01*
X148809821Y-106694878D02*
X148738392Y-106730592D01*
X148738392Y-106730592D02*
X148702678Y-106766307D01*
X148702678Y-106766307D02*
X148666964Y-106837735D01*
X159595535Y-115159164D02*
X159595535Y-114409164D01*
X159595535Y-114409164D02*
X159774106Y-114409164D01*
X159774106Y-114409164D02*
X159881249Y-114444878D01*
X159881249Y-114444878D02*
X159952678Y-114516307D01*
X159952678Y-114516307D02*
X159988392Y-114587735D01*
X159988392Y-114587735D02*
X160024106Y-114730592D01*
X160024106Y-114730592D02*
X160024106Y-114837735D01*
X160024106Y-114837735D02*
X159988392Y-114980592D01*
X159988392Y-114980592D02*
X159952678Y-115052021D01*
X159952678Y-115052021D02*
X159881249Y-115123450D01*
X159881249Y-115123450D02*
X159774106Y-115159164D01*
X159774106Y-115159164D02*
X159595535Y-115159164D01*
X160738392Y-115159164D02*
X160309821Y-115159164D01*
X160524106Y-115159164D02*
X160524106Y-114409164D01*
X160524106Y-114409164D02*
X160452678Y-114516307D01*
X160452678Y-114516307D02*
X160381249Y-114587735D01*
X160381249Y-114587735D02*
X160309821Y-114623450D01*
X161381250Y-114409164D02*
X161238392Y-114409164D01*
X161238392Y-114409164D02*
X161166964Y-114444878D01*
X161166964Y-114444878D02*
X161131250Y-114480592D01*
X161131250Y-114480592D02*
X161059821Y-114587735D01*
X161059821Y-114587735D02*
X161024107Y-114730592D01*
X161024107Y-114730592D02*
X161024107Y-115016307D01*
X161024107Y-115016307D02*
X161059821Y-115087735D01*
X161059821Y-115087735D02*
X161095535Y-115123450D01*
X161095535Y-115123450D02*
X161166964Y-115159164D01*
X161166964Y-115159164D02*
X161309821Y-115159164D01*
X161309821Y-115159164D02*
X161381250Y-115123450D01*
X161381250Y-115123450D02*
X161416964Y-115087735D01*
X161416964Y-115087735D02*
X161452678Y-115016307D01*
X161452678Y-115016307D02*
X161452678Y-114837735D01*
X161452678Y-114837735D02*
X161416964Y-114766307D01*
X161416964Y-114766307D02*
X161381250Y-114730592D01*
X161381250Y-114730592D02*
X161309821Y-114694878D01*
X161309821Y-114694878D02*
X161166964Y-114694878D01*
X161166964Y-114694878D02*
X161095535Y-114730592D01*
X161095535Y-114730592D02*
X161059821Y-114766307D01*
X161059821Y-114766307D02*
X161024107Y-114837735D01*
X141940178Y-111159164D02*
X141940178Y-110409164D01*
X141940178Y-110409164D02*
X142118749Y-110409164D01*
X142118749Y-110409164D02*
X142225892Y-110444878D01*
X142225892Y-110444878D02*
X142297321Y-110516307D01*
X142297321Y-110516307D02*
X142333035Y-110587735D01*
X142333035Y-110587735D02*
X142368749Y-110730592D01*
X142368749Y-110730592D02*
X142368749Y-110837735D01*
X142368749Y-110837735D02*
X142333035Y-110980592D01*
X142333035Y-110980592D02*
X142297321Y-111052021D01*
X142297321Y-111052021D02*
X142225892Y-111123450D01*
X142225892Y-111123450D02*
X142118749Y-111159164D01*
X142118749Y-111159164D02*
X141940178Y-111159164D01*
X142725892Y-111159164D02*
X142868749Y-111159164D01*
X142868749Y-111159164D02*
X142940178Y-111123450D01*
X142940178Y-111123450D02*
X142975892Y-111087735D01*
X142975892Y-111087735D02*
X143047321Y-110980592D01*
X143047321Y-110980592D02*
X143083035Y-110837735D01*
X143083035Y-110837735D02*
X143083035Y-110552021D01*
X143083035Y-110552021D02*
X143047321Y-110480592D01*
X143047321Y-110480592D02*
X143011607Y-110444878D01*
X143011607Y-110444878D02*
X142940178Y-110409164D01*
X142940178Y-110409164D02*
X142797321Y-110409164D01*
X142797321Y-110409164D02*
X142725892Y-110444878D01*
X142725892Y-110444878D02*
X142690178Y-110480592D01*
X142690178Y-110480592D02*
X142654464Y-110552021D01*
X142654464Y-110552021D02*
X142654464Y-110730592D01*
X142654464Y-110730592D02*
X142690178Y-110802021D01*
X142690178Y-110802021D02*
X142725892Y-110837735D01*
X142725892Y-110837735D02*
X142797321Y-110873450D01*
X142797321Y-110873450D02*
X142940178Y-110873450D01*
X142940178Y-110873450D02*
X143011607Y-110837735D01*
X143011607Y-110837735D02*
X143047321Y-110802021D01*
X143047321Y-110802021D02*
X143083035Y-110730592D01*
X147595535Y-115159164D02*
X147595535Y-114409164D01*
X147595535Y-114409164D02*
X147774106Y-114409164D01*
X147774106Y-114409164D02*
X147881249Y-114444878D01*
X147881249Y-114444878D02*
X147952678Y-114516307D01*
X147952678Y-114516307D02*
X147988392Y-114587735D01*
X147988392Y-114587735D02*
X148024106Y-114730592D01*
X148024106Y-114730592D02*
X148024106Y-114837735D01*
X148024106Y-114837735D02*
X147988392Y-114980592D01*
X147988392Y-114980592D02*
X147952678Y-115052021D01*
X147952678Y-115052021D02*
X147881249Y-115123450D01*
X147881249Y-115123450D02*
X147774106Y-115159164D01*
X147774106Y-115159164D02*
X147595535Y-115159164D01*
X148738392Y-115159164D02*
X148309821Y-115159164D01*
X148524106Y-115159164D02*
X148524106Y-114409164D01*
X148524106Y-114409164D02*
X148452678Y-114516307D01*
X148452678Y-114516307D02*
X148381249Y-114587735D01*
X148381249Y-114587735D02*
X148309821Y-114623450D01*
X149381250Y-114659164D02*
X149381250Y-115159164D01*
X149202678Y-114373450D02*
X149024107Y-114909164D01*
X149024107Y-114909164D02*
X149488392Y-114909164D01*
X153952678Y-103159164D02*
X153952678Y-102409164D01*
X153952678Y-102409164D02*
X154131249Y-102409164D01*
X154131249Y-102409164D02*
X154238392Y-102444878D01*
X154238392Y-102444878D02*
X154309821Y-102516307D01*
X154309821Y-102516307D02*
X154345535Y-102587735D01*
X154345535Y-102587735D02*
X154381249Y-102730592D01*
X154381249Y-102730592D02*
X154381249Y-102837735D01*
X154381249Y-102837735D02*
X154345535Y-102980592D01*
X154345535Y-102980592D02*
X154309821Y-103052021D01*
X154309821Y-103052021D02*
X154238392Y-103123450D01*
X154238392Y-103123450D02*
X154131249Y-103159164D01*
X154131249Y-103159164D02*
X153952678Y-103159164D01*
X154631249Y-102409164D02*
X155095535Y-102409164D01*
X155095535Y-102409164D02*
X154845535Y-102694878D01*
X154845535Y-102694878D02*
X154952678Y-102694878D01*
X154952678Y-102694878D02*
X155024107Y-102730592D01*
X155024107Y-102730592D02*
X155059821Y-102766307D01*
X155059821Y-102766307D02*
X155095535Y-102837735D01*
X155095535Y-102837735D02*
X155095535Y-103016307D01*
X155095535Y-103016307D02*
X155059821Y-103087735D01*
X155059821Y-103087735D02*
X155024107Y-103123450D01*
X155024107Y-103123450D02*
X154952678Y-103159164D01*
X154952678Y-103159164D02*
X154738392Y-103159164D01*
X154738392Y-103159164D02*
X154666964Y-103123450D01*
X154666964Y-103123450D02*
X154631249Y-103087735D01*
X153940178Y-107159164D02*
X153940178Y-106409164D01*
X153940178Y-106409164D02*
X154118749Y-106409164D01*
X154118749Y-106409164D02*
X154225892Y-106444878D01*
X154225892Y-106444878D02*
X154297321Y-106516307D01*
X154297321Y-106516307D02*
X154333035Y-106587735D01*
X154333035Y-106587735D02*
X154368749Y-106730592D01*
X154368749Y-106730592D02*
X154368749Y-106837735D01*
X154368749Y-106837735D02*
X154333035Y-106980592D01*
X154333035Y-106980592D02*
X154297321Y-107052021D01*
X154297321Y-107052021D02*
X154225892Y-107123450D01*
X154225892Y-107123450D02*
X154118749Y-107159164D01*
X154118749Y-107159164D02*
X153940178Y-107159164D01*
X154618749Y-106409164D02*
X155118749Y-106409164D01*
X155118749Y-106409164D02*
X154797321Y-107159164D01*
X147595535Y-111159164D02*
X147595535Y-110409164D01*
X147595535Y-110409164D02*
X147774106Y-110409164D01*
X147774106Y-110409164D02*
X147881249Y-110444878D01*
X147881249Y-110444878D02*
X147952678Y-110516307D01*
X147952678Y-110516307D02*
X147988392Y-110587735D01*
X147988392Y-110587735D02*
X148024106Y-110730592D01*
X148024106Y-110730592D02*
X148024106Y-110837735D01*
X148024106Y-110837735D02*
X147988392Y-110980592D01*
X147988392Y-110980592D02*
X147952678Y-111052021D01*
X147952678Y-111052021D02*
X147881249Y-111123450D01*
X147881249Y-111123450D02*
X147774106Y-111159164D01*
X147774106Y-111159164D02*
X147595535Y-111159164D01*
X148738392Y-111159164D02*
X148309821Y-111159164D01*
X148524106Y-111159164D02*
X148524106Y-110409164D01*
X148524106Y-110409164D02*
X148452678Y-110516307D01*
X148452678Y-110516307D02*
X148381249Y-110587735D01*
X148381249Y-110587735D02*
X148309821Y-110623450D01*
X149202678Y-110409164D02*
X149274107Y-110409164D01*
X149274107Y-110409164D02*
X149345535Y-110444878D01*
X149345535Y-110444878D02*
X149381250Y-110480592D01*
X149381250Y-110480592D02*
X149416964Y-110552021D01*
X149416964Y-110552021D02*
X149452678Y-110694878D01*
X149452678Y-110694878D02*
X149452678Y-110873450D01*
X149452678Y-110873450D02*
X149416964Y-111016307D01*
X149416964Y-111016307D02*
X149381250Y-111087735D01*
X149381250Y-111087735D02*
X149345535Y-111123450D01*
X149345535Y-111123450D02*
X149274107Y-111159164D01*
X149274107Y-111159164D02*
X149202678Y-111159164D01*
X149202678Y-111159164D02*
X149131250Y-111123450D01*
X149131250Y-111123450D02*
X149095535Y-111087735D01*
X149095535Y-111087735D02*
X149059821Y-111016307D01*
X149059821Y-111016307D02*
X149024107Y-110873450D01*
X149024107Y-110873450D02*
X149024107Y-110694878D01*
X149024107Y-110694878D02*
X149059821Y-110552021D01*
X149059821Y-110552021D02*
X149095535Y-110480592D01*
X149095535Y-110480592D02*
X149131250Y-110444878D01*
X149131250Y-110444878D02*
X149202678Y-110409164D01*
X155874999Y-121339164D02*
X155624999Y-120982021D01*
X155446428Y-121339164D02*
X155446428Y-120589164D01*
X155446428Y-120589164D02*
X155732142Y-120589164D01*
X155732142Y-120589164D02*
X155803571Y-120624878D01*
X155803571Y-120624878D02*
X155839285Y-120660592D01*
X155839285Y-120660592D02*
X155874999Y-120732021D01*
X155874999Y-120732021D02*
X155874999Y-120839164D01*
X155874999Y-120839164D02*
X155839285Y-120910592D01*
X155839285Y-120910592D02*
X155803571Y-120946307D01*
X155803571Y-120946307D02*
X155732142Y-120982021D01*
X155732142Y-120982021D02*
X155446428Y-120982021D01*
X156589285Y-121339164D02*
X156160714Y-121339164D01*
X156374999Y-121339164D02*
X156374999Y-120589164D01*
X156374999Y-120589164D02*
X156303571Y-120696307D01*
X156303571Y-120696307D02*
X156232142Y-120767735D01*
X156232142Y-120767735D02*
X156160714Y-120803450D01*
X141952678Y-107159164D02*
X141952678Y-106409164D01*
X141952678Y-106409164D02*
X142131249Y-106409164D01*
X142131249Y-106409164D02*
X142238392Y-106444878D01*
X142238392Y-106444878D02*
X142309821Y-106516307D01*
X142309821Y-106516307D02*
X142345535Y-106587735D01*
X142345535Y-106587735D02*
X142381249Y-106730592D01*
X142381249Y-106730592D02*
X142381249Y-106837735D01*
X142381249Y-106837735D02*
X142345535Y-106980592D01*
X142345535Y-106980592D02*
X142309821Y-107052021D01*
X142309821Y-107052021D02*
X142238392Y-107123450D01*
X142238392Y-107123450D02*
X142131249Y-107159164D01*
X142131249Y-107159164D02*
X141952678Y-107159164D01*
X143059821Y-106409164D02*
X142702678Y-106409164D01*
X142702678Y-106409164D02*
X142666964Y-106766307D01*
X142666964Y-106766307D02*
X142702678Y-106730592D01*
X142702678Y-106730592D02*
X142774107Y-106694878D01*
X142774107Y-106694878D02*
X142952678Y-106694878D01*
X142952678Y-106694878D02*
X143024107Y-106730592D01*
X143024107Y-106730592D02*
X143059821Y-106766307D01*
X143059821Y-106766307D02*
X143095535Y-106837735D01*
X143095535Y-106837735D02*
X143095535Y-107016307D01*
X143095535Y-107016307D02*
X143059821Y-107087735D01*
X143059821Y-107087735D02*
X143024107Y-107123450D01*
X143024107Y-107123450D02*
X142952678Y-107159164D01*
X142952678Y-107159164D02*
X142774107Y-107159164D01*
X142774107Y-107159164D02*
X142702678Y-107123450D01*
X142702678Y-107123450D02*
X142666964Y-107087735D01*
X159952678Y-103159164D02*
X159952678Y-102409164D01*
X159952678Y-102409164D02*
X160131249Y-102409164D01*
X160131249Y-102409164D02*
X160238392Y-102444878D01*
X160238392Y-102444878D02*
X160309821Y-102516307D01*
X160309821Y-102516307D02*
X160345535Y-102587735D01*
X160345535Y-102587735D02*
X160381249Y-102730592D01*
X160381249Y-102730592D02*
X160381249Y-102837735D01*
X160381249Y-102837735D02*
X160345535Y-102980592D01*
X160345535Y-102980592D02*
X160309821Y-103052021D01*
X160309821Y-103052021D02*
X160238392Y-103123450D01*
X160238392Y-103123450D02*
X160131249Y-103159164D01*
X160131249Y-103159164D02*
X159952678Y-103159164D01*
X161024107Y-102659164D02*
X161024107Y-103159164D01*
X160845535Y-102373450D02*
X160666964Y-102909164D01*
X160666964Y-102909164D02*
X161131249Y-102909164D01*
X135171786Y-113651436D02*
X135247547Y-113222122D01*
X134868740Y-113348391D02*
X135399070Y-112818061D01*
X135399070Y-112818061D02*
X135601101Y-113020091D01*
X135601101Y-113020091D02*
X135626354Y-113095853D01*
X135626354Y-113095853D02*
X135626354Y-113146360D01*
X135626354Y-113146360D02*
X135601101Y-113222122D01*
X135601101Y-113222122D02*
X135525339Y-113297883D01*
X135525339Y-113297883D02*
X135449578Y-113323137D01*
X135449578Y-113323137D02*
X135399070Y-113323137D01*
X135399070Y-113323137D02*
X135323309Y-113297883D01*
X135323309Y-113297883D02*
X135121278Y-113095853D01*
X136181938Y-113600929D02*
X135929400Y-113348391D01*
X135929400Y-113348391D02*
X135651608Y-113575675D01*
X135651608Y-113575675D02*
X135702116Y-113575675D01*
X135702116Y-113575675D02*
X135777877Y-113600929D01*
X135777877Y-113600929D02*
X135904146Y-113727198D01*
X135904146Y-113727198D02*
X135929400Y-113802959D01*
X135929400Y-113802959D02*
X135929400Y-113853467D01*
X135929400Y-113853467D02*
X135904146Y-113929228D01*
X135904146Y-113929228D02*
X135777877Y-114055497D01*
X135777877Y-114055497D02*
X135702116Y-114080751D01*
X135702116Y-114080751D02*
X135651608Y-114080751D01*
X135651608Y-114080751D02*
X135575847Y-114055497D01*
X135575847Y-114055497D02*
X135449578Y-113929228D01*
X135449578Y-113929228D02*
X135424324Y-113853467D01*
X135424324Y-113853467D02*
X135424324Y-113802959D01*
D11*
%TO.C,SW1*%
X148300000Y-116500000D02*
X148300000Y-117700000D01*
X148300000Y-119300000D02*
X148300000Y-120500000D01*
X148300000Y-120500000D02*
X154700000Y-120500000D01*
X154700000Y-116500000D02*
X148300000Y-116500000D01*
X154700000Y-117700000D02*
X154700000Y-116500000D01*
X154700000Y-120500000D02*
X154700000Y-119300000D01*
%TO.C,R4*%
X136870645Y-109657579D02*
X135842421Y-108629355D01*
X138157579Y-108370645D02*
X137129355Y-107342421D01*
%TO.C,D8*%
X158893750Y-106135000D02*
X162953750Y-106135000D01*
X162953750Y-103865000D02*
X158893750Y-103865000D01*
X162953750Y-106135000D02*
X162953750Y-103865000D01*
%TO.C,U3*%
X135940000Y-119500000D02*
X135940000Y-117550000D01*
X135940000Y-119500000D02*
X135940000Y-121450000D01*
X146060000Y-119500000D02*
X146060000Y-117550000D01*
X146060000Y-119500000D02*
X146060000Y-121450000D01*
X146335000Y-117040000D02*
X146005000Y-116800000D01*
X146335000Y-116560000D01*
X146335000Y-117040000D01*
G36*
X146335000Y-117040000D02*
G01*
X146005000Y-116800000D01*
X146335000Y-116560000D01*
X146335000Y-117040000D01*
G37*
%TO.C,D13*%
X140893750Y-114135000D02*
X144953750Y-114135000D01*
X144953750Y-111865000D02*
X140893750Y-111865000D01*
X144953750Y-114135000D02*
X144953750Y-111865000D01*
%TO.C,D15*%
X152906250Y-114135000D02*
X156966250Y-114135000D01*
X156966250Y-111865000D02*
X152906250Y-111865000D01*
X156966250Y-114135000D02*
X156966250Y-111865000D01*
%TO.C,J2*%
X158590001Y-115630000D02*
X158590000Y-120830000D01*
X163729999Y-115630000D02*
X158590001Y-115630000D01*
X163729999Y-115630000D02*
X163730000Y-118230000D01*
X165000000Y-115630000D02*
X166330000Y-115630000D01*
X166330000Y-115630000D02*
X166330000Y-116960000D01*
X163730000Y-118230000D02*
X166330000Y-118230001D01*
X166330000Y-118230001D02*
X166330000Y-120830000D01*
X166330000Y-120830000D02*
X158590000Y-120830000D01*
%TO.C,D1*%
X140893750Y-102135000D02*
X144953750Y-102135000D01*
X144953750Y-99865000D02*
X140893750Y-99865000D01*
X144953750Y-102135000D02*
X144953750Y-99865000D01*
%TO.C,C3*%
X154711252Y-92090000D02*
X153288748Y-92090000D01*
X154711252Y-93910000D02*
X153288748Y-93910000D01*
%TO.C,C1*%
X136090000Y-95211252D02*
X136090000Y-93788748D01*
X137910000Y-95211252D02*
X137910000Y-93788748D01*
%TO.C,U1*%
X140065000Y-94500000D02*
X140065000Y-92550000D01*
X140065000Y-94500000D02*
X140065000Y-96450000D01*
X148935000Y-94500000D02*
X148935000Y-92550000D01*
X148935000Y-94500000D02*
X148935000Y-96450000D01*
X140130000Y-97200000D02*
X139800000Y-97440000D01*
X139800000Y-96960000D01*
X140130000Y-97200000D01*
G36*
X140130000Y-97200000D02*
G01*
X139800000Y-97440000D01*
X139800000Y-96960000D01*
X140130000Y-97200000D01*
G37*
%TO.C,C4*%
X148788748Y-121590000D02*
X150211252Y-121590000D01*
X148788748Y-123410000D02*
X150211252Y-123410000D01*
%TO.C,Y1*%
X164300000Y-95050000D02*
X164300000Y-103450000D01*
X164300000Y-103450000D02*
X167700000Y-103450000D01*
X165050000Y-93900000D02*
X165050000Y-93450000D01*
X165455000Y-95050000D02*
X165050000Y-93900000D01*
X166545000Y-95050000D02*
X166950000Y-93900000D01*
X166950000Y-93900000D02*
X166950000Y-93450000D01*
X167700000Y-95050000D02*
X164300000Y-95050000D01*
X167700000Y-103450000D02*
X167700000Y-95050000D01*
%TO.C,R3*%
X136870645Y-105657579D02*
X135842421Y-104629355D01*
X138157579Y-104370645D02*
X137129355Y-103342421D01*
%TO.C,C2*%
X154711252Y-95590000D02*
X153288748Y-95590000D01*
X154711252Y-97410000D02*
X153288748Y-97410000D01*
%TO.C,D2*%
X146906250Y-102135000D02*
X150966250Y-102135000D01*
X150966250Y-99865000D02*
X146906250Y-99865000D01*
X150966250Y-102135000D02*
X150966250Y-99865000D01*
%TO.C,D11*%
X152893750Y-110135000D02*
X156953750Y-110135000D01*
X156953750Y-107865000D02*
X152893750Y-107865000D01*
X156953750Y-110135000D02*
X156953750Y-107865000D01*
%TO.C,D12*%
X158906250Y-110135000D02*
X162966250Y-110135000D01*
X162966250Y-107865000D02*
X158906250Y-107865000D01*
X162966250Y-110135000D02*
X162966250Y-107865000D01*
%TO.C,U2*%
X157440000Y-94500000D02*
X157440000Y-92550000D01*
X157440000Y-94500000D02*
X157440000Y-96450000D01*
X162560000Y-94500000D02*
X162560000Y-92550000D01*
X162560000Y-94500000D02*
X162560000Y-96450000D01*
X157535000Y-97200000D02*
X157205000Y-97440000D01*
X157205000Y-96960000D01*
X157535000Y-97200000D01*
G36*
X157535000Y-97200000D02*
G01*
X157205000Y-97440000D01*
X157205000Y-96960000D01*
X157535000Y-97200000D01*
G37*
%TO.C,R2*%
X136870645Y-101657579D02*
X135842421Y-100629355D01*
X138157579Y-100370645D02*
X137129355Y-99342421D01*
%TO.C,D6*%
X146906250Y-106135000D02*
X150966250Y-106135000D01*
X150966250Y-103865000D02*
X146906250Y-103865000D01*
X150966250Y-106135000D02*
X150966250Y-103865000D01*
%TO.C,D16*%
X158906250Y-114135000D02*
X162966250Y-114135000D01*
X162966250Y-111865000D02*
X158906250Y-111865000D01*
X162966250Y-114135000D02*
X162966250Y-111865000D01*
%TO.C,D9*%
X140893750Y-110135000D02*
X144953750Y-110135000D01*
X144953750Y-107865000D02*
X140893750Y-107865000D01*
X144953750Y-110135000D02*
X144953750Y-107865000D01*
%TO.C,D14*%
X146906250Y-114135000D02*
X150966250Y-114135000D01*
X150966250Y-111865000D02*
X146906250Y-111865000D01*
X150966250Y-114135000D02*
X150966250Y-111865000D01*
%TO.C,D3*%
X152906250Y-102135000D02*
X156966250Y-102135000D01*
X156966250Y-99865000D02*
X152906250Y-99865000D01*
X156966250Y-102135000D02*
X156966250Y-99865000D01*
%TO.C,D7*%
X152893750Y-106135000D02*
X156953750Y-106135000D01*
X156953750Y-103865000D02*
X152893750Y-103865000D01*
X156953750Y-106135000D02*
X156953750Y-103865000D01*
%TO.C,D10*%
X146906250Y-110135000D02*
X150966250Y-110135000D01*
X150966250Y-107865000D02*
X146906250Y-107865000D01*
X150966250Y-110135000D02*
X150966250Y-107865000D01*
%TO.C,R1*%
X155272936Y-121590000D02*
X156727064Y-121590000D01*
X155272936Y-123410000D02*
X156727064Y-123410000D01*
%TO.C,D5*%
X140906250Y-106135000D02*
X144966250Y-106135000D01*
X144966250Y-103865000D02*
X140906250Y-103865000D01*
X144966250Y-106135000D02*
X144966250Y-103865000D01*
%TO.C,D4*%
X158906250Y-102135000D02*
X162966250Y-102135000D01*
X162966250Y-99865000D02*
X158906250Y-99865000D01*
X162966250Y-102135000D02*
X162966250Y-99865000D01*
%TO.C,R5*%
X136870645Y-113657579D02*
X135842421Y-112629355D01*
X138157579Y-112370645D02*
X137129355Y-111342421D01*
%TD*%
M02*
